<svg version="1.1" id="Layer_1" xmlns="http://www.w3.org/2000/svg" xmlns:xlink="http://www.w3.org/1999/xlink" x="0px" y="0px"
	 width="100%" viewBox="0 0 1611 1529" enable-background="new 0 0 1611 1529" xml:space="preserve">
<path fill="#000000" opacity="1.000000" stroke="none" 
	d="
M1612.000000,581.000000 
	C1612.000000,897.666626 1612.000000,1213.833252 1612.000000,1530.000000 
	C1075.000122,1530.000000 538.000305,1530.000000 1.000343,1530.000000 
	C1.000229,1020.333557 1.000229,510.667145 1.000114,1.000549 
	C537.999695,1.000366 1074.999390,1.000366 1611.999512,1.000183 
	C1612.000000,194.166672 1612.000000,387.333344 1612.000000,581.000000 
M1298.032593,998.992126 
	C1298.032593,998.992126 1297.963013,999.098816 1298.904419,999.009338 
	C1311.536255,998.942871 1324.168091,998.876404 1337.749878,998.974121 
	C1363.464478,998.998901 1389.179077,999.023743 1415.305176,999.833618 
	C1427.522949,999.887390 1439.740601,999.955505 1451.958374,999.953430 
	C1452.583984,999.953308 1453.209717,999.351379 1453.976807,998.098145 
	C1454.014526,971.745422 1454.052246,945.392639 1454.840820,918.606689 
	C1454.895996,910.118347 1454.951294,901.629944 1455.936157,893.021240 
	C1477.589233,893.031494 1499.242188,893.041809 1521.305054,893.837830 
	C1542.853394,893.890442 1564.401855,893.951355 1585.950195,893.954468 
	C1586.578979,893.954590 1587.207764,893.344238 1587.973511,892.087769 
	C1587.998901,872.092957 1588.024170,852.098206 1588.834717,831.693115 
	C1588.828857,804.561035 1588.823120,777.428894 1588.970947,749.332947 
	C1588.925781,723.550293 1588.880737,697.767578 1588.559937,671.162842 
	C1573.381226,671.162964 1558.202393,671.163025 1542.092285,671.026794 
	C1516.113159,671.011047 1490.134033,670.995300 1463.737915,670.216003 
	C1461.302490,670.052368 1458.867188,669.888794 1456.087402,669.702026 
	C1456.087402,644.712036 1456.087402,619.876160 1456.840454,594.606750 
	C1456.891968,585.079651 1456.961670,575.552551 1456.953003,566.025452 
	C1456.952393,565.404663 1456.349365,564.784485 1455.095337,564.021790 
	C1441.099487,563.999939 1427.103638,563.978027 1412.696533,563.170288 
	C1386.198608,563.177063 1359.700562,563.183838 1332.252319,563.025696 
	C1321.529297,562.987854 1310.806152,562.950012 1300.013672,561.995911 
	C1300.025146,557.032471 1300.036621,552.069031 1300.834595,546.696289 
	C1300.828247,519.568604 1300.821777,492.440948 1300.970825,464.347900 
	C1300.970825,457.940094 1300.970825,451.532257 1300.970825,443.951111 
	C1271.522095,443.951111 1242.813843,443.951111 1213.696777,443.164520 
	C1187.233276,443.171661 1160.769897,443.178802 1133.341553,443.030243 
	C1107.595581,443.004181 1081.849487,442.978088 1055.695068,442.165833 
	C1032.124023,442.076691 1008.552917,441.987549 984.997742,440.973938 
	C985.004639,397.323517 985.011597,353.673126 985.953125,309.999908 
	C1001.286072,309.999908 1016.619019,309.999908 1032.029053,309.999908 
	C1032.029053,295.885132 1032.029053,282.458374 1032.962280,269.008972 
	C1043.438843,269.007904 1053.915771,269.043884 1064.391724,268.964020 
	C1065.884888,268.952637 1067.373657,268.379944 1068.961060,267.125732 
	C1069.000122,258.753326 1069.039185,250.380890 1069.999023,242.000397 
	C1101.902710,242.000366 1133.806519,242.020248 1165.710205,241.993225 
	C1186.477173,241.975647 1207.244263,241.889847 1228.936890,241.981384 
	C1256.176636,241.981384 1283.416382,241.981384 1310.670654,241.981384 
	C1310.670654,211.755203 1310.670654,181.928452 1310.670654,152.167191 
	C1282.895752,152.167191 1255.451050,152.167191 1227.079468,152.026001 
	C1174.411377,152.014832 1121.743408,152.003662 1069.020874,151.057556 
	C1068.968506,142.683395 1068.916016,134.309235 1068.512329,125.151199 
	C1056.351196,125.090263 1044.190063,125.029327 1032.000977,124.035408 
	C1032.000977,110.815125 1032.000977,97.594841 1032.000977,83.965973 
	C1016.093811,83.965973 1000.553650,83.965973 985.001160,83.032990 
	C985.001160,65.769318 985.001160,48.505642 985.001160,31.016380 
	C952.551636,31.016380 920.595276,31.012218 888.638916,31.054150 
	C888.135742,31.054810 887.633362,31.622005 887.046936,32.868202 
	C887.040039,168.900482 887.033142,304.932770 886.084656,440.997650 
	C863.731506,441.052612 841.378418,441.107574 818.093628,441.025482 
	C787.791748,441.016083 757.489868,441.006683 727.128601,440.835266 
	C727.128601,440.835266 726.961304,440.877411 726.550964,440.126221 
	C704.724243,440.142609 682.897522,440.158997 660.128967,440.079193 
	C638.760559,440.007141 617.392090,439.935059 596.001892,438.949127 
	C596.001892,411.644104 596.001892,384.339111 596.001892,356.921844 
	C579.849426,356.921844 564.409302,356.921844 548.971130,357.028900 
	C548.971130,357.028900 549.078247,357.030548 549.008789,356.089325 
	C549.005615,339.259888 549.026123,322.430389 548.957886,305.601196 
	C548.951843,304.117218 548.365906,302.635620 547.112427,301.034210 
	C529.530640,301.034210 511.948883,301.034210 493.863434,301.034210 
	C493.863434,283.855316 493.863434,267.399017 493.537689,250.144394 
	C483.454712,250.144394 473.371735,250.144394 462.920715,250.144394 
	C462.920715,222.029831 462.920715,194.657562 462.920715,167.354385 
	C438.373810,167.354385 414.206177,167.354385 389.923798,167.354385 
	C389.923798,202.815857 389.923798,237.924530 390.031128,273.030945 
	C390.031128,273.030945 390.032745,272.923615 389.091431,272.992859 
	C384.929565,272.995972 380.763062,272.878510 376.607147,273.037598 
	C372.781769,273.184021 368.967743,273.627777 365.037384,274.879425 
	C364.974457,297.252960 364.911530,319.626465 363.936066,342.000183 
	C355.684021,342.000183 347.431946,342.000183 338.854523,342.000183 
	C338.854523,356.346680 338.854523,369.950867 338.854523,384.071533 
	C323.791351,384.071533 309.066559,384.071533 293.882111,384.071533 
	C293.882111,399.722626 293.882111,414.851837 292.965851,429.998474 
	C281.824951,429.999023 270.683777,429.963470 259.543457,430.043976 
	C258.081604,430.054504 256.624054,430.659637 255.026474,431.919037 
	C255.026474,474.151062 255.026474,516.383118 255.026474,559.000427 
	C291.990295,559.000427 328.418732,559.000427 364.982574,559.851379 
	C366.315948,560.566467 367.631592,561.857849 368.985687,561.899475 
	C375.839569,562.110413 382.703430,561.996582 389.951294,561.996582 
	C389.951294,566.407043 389.951294,570.162659 389.063171,573.981140 
	C386.384369,573.969177 383.705566,573.957214 380.602936,573.185364 
	C367.094330,573.124756 353.585724,573.051147 340.077087,573.043884 
	C339.434814,573.043518 338.792206,573.630737 338.033661,574.853638 
	C337.972260,577.902283 337.910858,580.950867 336.938507,584.001099 
	C327.345764,584.001099 317.753021,584.001099 307.925385,584.001099 
	C307.925385,593.405518 307.925385,602.218933 308.030304,611.030151 
	C308.030304,611.030151 308.031982,610.925293 307.090851,610.992249 
	C293.155823,610.992249 279.220825,610.992249 264.995361,610.992249 
	C264.995361,621.262695 264.995361,631.057434 264.065613,640.973389 
	C248.826385,640.973389 233.587143,640.973389 217.854843,640.973389 
	C217.854843,647.077820 217.854843,652.536316 216.942032,658.000244 
	C186.684677,658.000244 156.427322,658.000244 125.925438,658.000244 
	C125.925438,671.404053 125.925438,684.218201 126.030365,697.030212 
	C126.030365,697.030212 126.031998,696.925293 125.090523,696.992798 
	C105.094795,696.992798 85.099068,696.992798 64.996552,696.992798 
	C64.996552,708.428955 64.996552,719.205078 64.975586,729.927612 
	C64.975586,729.927612 64.921455,729.947205 63.995358,729.991028 
	C52.436996,729.991028 40.878635,729.991028 29.166304,729.991028 
	C29.166304,736.098389 29.166304,741.549072 29.017384,747.916138 
	C29.066725,751.942444 29.116066,755.968750 29.012753,760.919922 
	C29.063486,766.280762 29.114220,771.641663 29.016848,777.925049 
	C29.060760,782.063782 29.104671,786.202454 29.012577,791.204163 
	C29.012577,796.410400 29.012577,801.616638 29.012577,807.123901 
	C41.489120,807.123901 53.200523,807.123901 64.944206,808.041199 
	C64.963554,820.173706 64.950027,832.306519 65.045082,844.438477 
	C65.056587,845.906860 65.654175,847.370728 66.911400,848.970947 
	C86.606781,849.030090 106.302162,849.089294 126.001495,850.060730 
	C126.001495,859.643982 126.001495,869.227234 126.001495,879.004700 
	C156.995758,879.004700 187.426788,879.004700 217.975266,879.933655 
	C217.975266,885.187927 217.975266,890.442261 217.975266,896.143494 
	C234.108841,896.143494 249.552551,896.143494 265.001221,897.056641 
	C265.001221,906.650879 265.001221,916.245056 265.001221,926.075012 
	C279.737762,926.075012 293.884949,926.075012 308.030029,925.969910 
	C308.030029,925.969910 307.924896,925.968201 307.991791,926.909363 
	C307.994873,933.619934 307.926575,940.331787 308.045959,947.040283 
	C308.080383,948.976624 308.654663,950.903381 309.912506,952.968933 
	C318.265198,952.990112 326.617859,953.011353 334.996094,953.964783 
	C334.996857,960.449402 334.911957,966.935791 335.041901,973.417847 
	C335.091675,975.900024 335.632385,978.372375 336.886566,980.966187 
	C350.992432,980.977356 365.099670,980.891602 379.203003,981.086121 
	C381.840759,981.122559 384.463043,982.281311 387.023438,983.852478 
	C387.023438,987.093445 387.023438,990.334473 387.023438,994.004639 
	C380.433594,994.004639 374.527740,994.054993 368.623474,993.978516 
	C366.420593,993.950073 364.640411,994.153687 363.934875,997.000122 
	C327.709259,997.000122 291.483612,997.000122 255.001480,997.000122 
	C255.001480,998.667969 255.000351,999.648315 255.001633,1000.628662 
	C255.055771,1042.089355 255.110138,1083.549927 255.435532,1125.835327 
	C268.251465,1125.896729 281.067413,1125.958130 293.982513,1126.949829 
	C293.982513,1141.872070 293.982513,1156.794312 293.982513,1172.229736 
	C309.375214,1172.229736 324.098358,1172.229736 339.151245,1172.229736 
	C339.151245,1186.351562 339.151245,1199.954102 339.151245,1214.000122 
	C347.942932,1214.000122 356.395782,1214.000122 364.963623,1214.931274 
	C365.025360,1237.307251 365.087097,1259.683105 365.488556,1282.848267 
	C373.670074,1282.924316 381.851593,1283.000244 390.031006,1282.968994 
	C390.031006,1282.968994 389.923645,1282.967163 389.993164,1283.908936 
	C389.993164,1318.844727 389.993164,1353.780518 389.993164,1388.783691 
	C414.538391,1388.783691 438.612152,1388.783691 463.105438,1388.783691 
	C463.105438,1361.171753 463.105438,1333.771973 463.105438,1306.016846 
	C472.152130,1306.016846 480.782990,1306.061890 489.412537,1305.973755 
	C490.899109,1305.958618 492.379944,1305.377075 493.970276,1304.117920 
	C493.970276,1287.868286 493.970276,1271.618652 493.970276,1254.847046 
	C512.473938,1254.847046 530.261353,1254.847046 548.848450,1254.526245 
	C548.924988,1236.007202 549.001587,1217.488159 548.970947,1198.971191 
	C548.970947,1198.971191 548.969543,1199.078369 549.910889,1199.009766 
	C565.181396,1199.009766 580.451843,1199.009766 596.002075,1199.009766 
	C596.002075,1170.074829 596.002075,1141.617310 596.930298,1113.023438 
	C615.904541,1113.023560 634.878784,1113.023804 654.252869,1113.827637 
	C684.733704,1113.824585 715.214478,1113.821533 746.660400,1113.970459 
	C772.405579,1113.997192 798.150696,1114.023804 824.305603,1114.835815 
	C845.212341,1114.902222 866.119141,1114.968628 887.010864,1115.968018 
	C887.010864,1245.470703 887.010864,1374.973511 887.010864,1504.869995 
	C919.867310,1504.869995 951.971741,1504.869995 984.844482,1504.493042 
	C984.903748,1493.670654 984.963013,1482.848145 985.956421,1472.000610 
	C1001.288574,1472.000610 1016.620728,1472.000610 1032.028931,1472.000610 
	C1032.028931,1457.884033 1032.028931,1444.457642 1032.962036,1431.010254 
	C1043.439087,1431.008667 1053.916260,1431.044189 1064.392700,1430.963745 
	C1065.885254,1430.952271 1067.373535,1430.378662 1068.960815,1429.124268 
	C1068.999023,1420.752075 1069.037231,1412.379761 1069.996826,1403.999390 
	C1101.899902,1403.999023 1133.802979,1404.018433 1165.706055,1403.991211 
	C1186.472656,1403.973511 1207.239258,1403.887939 1228.931885,1403.981445 
	C1256.171997,1403.981445 1283.412109,1403.981445 1310.672485,1403.981445 
	C1310.672485,1373.758423 1310.672485,1343.931885 1310.672485,1314.165283 
	C1282.900146,1314.165283 1255.455933,1314.165283 1227.083862,1314.023682 
	C1174.415283,1314.012939 1121.746826,1314.002197 1069.021973,1313.056641 
	C1068.969482,1304.682251 1068.916992,1296.307739 1068.511475,1287.150391 
	C1056.350586,1287.089844 1044.189819,1287.029175 1032.000122,1286.035645 
	C1032.000122,1272.815796 1032.000122,1259.595947 1032.000122,1245.977661 
	C1016.096802,1245.977661 1000.557617,1245.977661 985.001343,1245.043335 
	C985.028320,1202.047485 985.055298,1159.051758 985.036377,1115.988647 
	C985.036377,1115.988647 984.968262,1116.033203 985.910217,1116.003784 
	C1011.172729,1115.940674 1036.435303,1115.877563 1062.662231,1115.969604 
	C1088.407715,1115.997437 1114.153198,1116.025391 1140.309937,1116.837158 
	C1166.782471,1116.829956 1193.255005,1116.822754 1220.688110,1116.971069 
	C1246.082275,1116.971069 1271.476562,1116.971069 1297.115601,1116.971069 
	C1297.115601,1088.588623 1297.115601,1060.806519 1297.854614,1032.578003 
	C1297.949585,1021.405762 1298.044556,1010.233582 1298.032593,998.992126 
M163.781036,639.983032 
	C169.499908,639.983032 175.218796,639.983032 180.832993,639.983032 
	C180.832993,633.768799 180.832993,628.302734 180.423294,622.108704 
	C174.376526,622.108704 168.329773,622.108704 161.641388,622.108704 
	C162.059021,628.314209 162.446625,634.073608 163.781036,639.983032 
M206.030350,599.916626 
	C206.075638,610.281738 206.120911,620.646851 206.447723,631.830933 
	C217.510147,631.830933 228.572586,631.830933 239.684937,631.830933 
	C239.684937,620.444885 239.684937,609.288940 239.684937,598.002014 
	C229.098648,598.002014 218.826004,597.980225 208.553879,598.044556 
	C207.755295,598.049500 206.960480,598.657959 206.030350,599.916626 
M206.029022,906.919678 
	C206.074219,917.283142 206.119415,927.646667 206.444946,938.830017 
	C217.509003,938.830017 228.573044,938.830017 239.686493,938.830017 
	C239.686493,927.444763 239.686493,916.287048 239.686493,905.002014 
	C229.100266,905.002014 218.825943,904.980042 208.552155,905.044617 
	C207.754333,905.049561 206.960327,905.660461 206.029022,906.919678 
M161.998306,906.490662 
	C161.998306,909.250061 161.998306,912.009399 161.998306,914.699585 
	C168.654968,914.699585 174.705673,914.699585 180.697388,914.699585 
	C180.697388,908.676086 180.697388,902.958374 180.697388,897.303528 
	C174.337860,897.303528 168.287872,897.303528 161.998306,897.303528 
	C161.998306,900.241577 161.998306,902.876709 161.998306,906.490662 
M80.299561,879.993896 
	C80.858856,879.573181 81.896439,879.161926 81.904953,878.730347 
	C82.014610,873.177063 81.977448,867.620850 81.977448,862.296143 
	C75.604294,862.296143 69.885124,862.296143 64.254211,862.296143 
	C64.254211,868.314636 64.254211,874.034241 64.254211,879.997925 
	C69.447731,879.997925 74.390236,879.997925 80.299561,879.993896 
M74.464325,674.998047 
	C76.890572,674.998047 79.316826,674.998047 81.791199,674.998047 
	C81.791199,668.781982 81.791199,663.063965 81.791199,657.340698 
	C75.741333,657.340698 69.904114,657.340698 64.297295,657.340698 
	C64.297295,663.403381 64.297295,669.123962 64.297295,674.997864 
	C67.558372,674.997864 70.524185,674.997864 74.464325,674.998047 
z"/>
<path fill="#F27384" opacity="1.000000" stroke="none" 
	d="
M1456.087402,595.040283 
	C1456.087402,619.876160 1456.087402,644.712036 1456.087402,669.702026 
	C1458.867188,669.888794 1461.302490,670.052368 1463.468628,670.642212 
	C1410.899658,670.693970 1358.599854,670.319580 1306.300171,669.942078 
	C1305.800781,669.938477 1305.301514,669.894043 1304.696289,669.494446 
	C1303.201782,668.413513 1301.823853,667.115173 1300.422852,667.089661 
	C1282.280151,666.758911 1264.134155,666.607483 1245.989014,666.416199 
	C1244.199951,666.397278 1242.410522,666.413696 1239.914795,666.413696 
	C1239.914795,645.320923 1239.914795,624.785828 1239.914795,603.632812 
	C1197.140747,603.632812 1155.075439,603.632812 1112.050171,603.632812 
	C1112.050171,624.045715 1112.050171,644.562073 1112.050171,665.413025 
	C1109.275513,665.413025 1107.455688,665.413086 1105.635864,665.413025 
	C1087.640381,665.412781 1069.644775,665.391785 1051.649414,665.442383 
	C1049.698853,665.447876 1047.005615,664.489990 1046.375977,668.009033 
	C999.628479,667.671326 953.339172,667.268860 907.048950,667.025635 
	C877.892090,666.872498 848.733459,667.041321 819.577087,666.847778 
	C815.169373,666.818542 813.927368,668.160339 813.905823,672.535522 
	C813.747498,704.664185 813.189819,736.790894 813.038025,768.919556 
	C812.857788,807.073547 813.019897,845.229126 812.850891,883.383179 
	C812.831604,887.734375 814.061707,889.076050 818.493713,889.092163 
	C870.615112,889.281433 922.735535,889.713928 974.856750,889.978638 
	C998.515442,890.098816 1022.175354,889.988892 1045.897949,890.440430 
	C1045.961182,896.481506 1045.961182,902.065552 1045.961182,907.756714 
	C1046.966431,907.847656 1047.781616,907.977661 1048.598145,907.987000 
	C1066.735229,908.194824 1084.872314,908.410645 1103.009888,908.576355 
	C1110.413208,908.643982 1110.413696,908.592102 1110.413574,916.228943 
	C1110.413330,926.387268 1110.413208,936.545532 1110.412964,946.703857 
	C1110.412842,949.657043 1110.412842,952.610168 1110.412842,956.277893 
	C1153.237671,956.277893 1195.408203,956.277893 1238.515625,956.277893 
	C1238.515625,940.663696 1238.515625,924.986450 1238.515625,909.235168 
	C1260.504517,909.235168 1281.564209,909.235168 1302.797607,909.235168 
	C1303.158813,903.273865 1303.499390,897.651123 1304.318726,892.021240 
	C1354.569946,892.377197 1404.342529,892.740295 1454.080078,893.563171 
	C1454.060059,902.361877 1454.074951,910.700928 1454.089844,919.039917 
	C1454.052246,945.392639 1454.014526,971.745422 1453.447998,998.558228 
	C1440.244019,999.028442 1427.568848,999.038513 1414.893677,999.048584 
	C1389.179077,999.023743 1363.464478,998.998901 1336.944824,998.674805 
	C1324.125977,998.269653 1312.112305,998.145874 1300.098145,998.103394 
	C1299.387573,998.100830 1298.674805,998.751892 1297.963013,999.098816 
	C1297.963013,999.098816 1298.032593,998.992126 1297.798828,999.000488 
	C1297.373047,999.005920 1297.180908,999.002991 1296.520996,998.980103 
	C1282.083862,998.640259 1268.115723,998.206360 1254.144409,998.023926 
	C1224.342651,997.634705 1194.539917,997.254028 1164.736206,997.087585 
	C1088.446899,996.661682 1012.156860,996.387939 935.867493,995.988953 
	C883.572937,995.715515 831.279114,995.301514 778.984558,995.018799 
	C760.655334,994.919678 742.325073,995.024902 723.527466,995.023804 
	C704.760437,994.684448 686.461914,994.302917 668.161621,994.054321 
	C658.665649,993.925293 649.160950,993.843140 639.671082,994.115784 
	C635.366272,994.239563 633.685669,993.016785 633.927124,988.504150 
	C634.486389,978.049988 634.843445,967.575989 634.926025,957.107300 
	C635.082214,937.308899 634.892029,917.507935 635.017883,897.709167 
	C635.263306,859.080444 635.627258,820.452393 635.933899,781.366455 
	C636.283081,711.683533 636.641052,642.458130 636.995972,573.232788 
	C637.012207,570.069763 637.192993,566.891846 636.952393,563.747253 
	C636.661743,559.948669 638.290771,558.896423 641.900330,558.938232 
	C655.383362,559.094666 668.870361,558.898010 682.353699,559.040283 
	C689.817871,559.119019 697.277527,559.838135 704.739624,559.845154 
	C711.826599,559.851746 718.914124,559.306641 726.469604,559.023682 
	C751.575500,559.362061 776.212402,559.772217 800.851013,559.980530 
	C848.154114,560.380432 895.458069,560.683228 942.761902,560.994141 
	C996.564514,561.347717 1050.367310,561.660522 1104.170044,562.001648 
	C1155.475220,562.326965 1206.780273,562.691223 1258.085693,562.982727 
	C1272.084229,563.062256 1286.083984,562.941162 1300.083130,562.912170 
	C1310.806152,562.950012 1321.529297,562.987854 1333.057129,563.325500 
	C1335.009644,563.748596 1336.157227,563.979065 1337.304810,563.979370 
	C1362.572510,563.987000 1387.840088,563.969116 1413.107788,563.956116 
	C1427.103638,563.978027 1441.099487,563.999939 1455.555176,564.551025 
	C1456.039062,575.066956 1456.063232,585.053650 1456.087402,595.040283 
z"/>
<path fill="#5D3897" opacity="1.000000" stroke="none" 
	d="
M364.847168,996.999573 
	C364.640411,994.153687 366.420593,993.950073 368.623474,993.978516 
	C374.527740,994.054993 380.433594,994.004639 387.023438,994.004639 
	C387.023438,990.334473 387.023438,987.093445 387.304504,983.064087 
	C387.712341,980.961243 387.943146,979.647400 387.950928,978.332336 
	C388.301971,919.087830 388.600677,859.843079 388.978119,800.598755 
	C389.254791,757.172546 389.725494,713.747375 389.932953,670.320984 
	C390.086487,638.187439 389.955505,606.052551 389.951294,573.918274 
	C389.951294,570.162659 389.951294,566.407043 389.951294,561.996582 
	C382.703430,561.996582 375.839569,562.110413 368.985687,561.899475 
	C367.631592,561.857849 366.315948,560.566467 364.970581,558.960205 
	C364.972382,493.861694 364.991425,429.654358 364.992981,365.447021 
	C364.993164,357.631348 364.899048,349.815674 364.848633,342.000000 
	C364.911530,319.626465 364.974457,297.252960 365.551361,274.427063 
	C370.539459,273.981506 375.019012,274.126404 379.485992,273.951202 
	C383.009613,273.813019 386.517731,273.280823 390.032745,272.923615 
	C390.032745,272.923615 390.031128,273.030945 390.319397,272.774567 
	C390.736633,270.537567 390.976349,268.557037 390.977905,266.576324 
	C391.001923,235.790222 390.995056,205.004120 390.995331,174.218018 
	C390.995331,172.296371 390.995331,170.374725 390.995331,168.339432 
	C415.010864,168.339432 438.215576,168.339432 462.119568,168.339432 
	C462.119568,196.089767 462.119568,223.499847 462.101166,251.383850 
	C462.067169,312.061554 462.042023,372.265350 462.075195,432.469116 
	C462.076385,434.596161 462.655975,436.722839 462.504639,438.906647 
	C450.969421,438.963593 439.895538,438.963593 428.684998,438.963593 
	C428.525024,441.116272 428.352295,442.422760 428.341675,443.730560 
	C427.997131,486.186493 427.637451,528.642395 427.348511,571.098694 
	C427.173981,596.746460 427.136993,622.395081 426.994873,648.043091 
	C426.791901,684.674072 426.549561,721.304688 426.323547,757.935486 
	C426.216675,775.254639 426.104095,792.573853 426.002167,809.893005 
	C425.776825,848.187195 425.562103,886.481445 425.331696,924.775574 
	C425.236481,940.593994 425.099060,956.412292 425.003906,972.230713 
	C424.774567,1010.358643 424.554749,1048.486694 424.341858,1086.614746 
	C424.310242,1092.278320 424.337189,1097.942261 424.336670,1103.605957 
	C424.335907,1111.777466 424.334656,1111.853271 432.595398,1111.975830 
	C442.419128,1112.121704 452.245026,1112.120605 462.063171,1112.640381 
	C462.049622,1175.513672 462.041077,1237.930054 462.045959,1300.346313 
	C462.046112,1302.007568 462.191681,1303.668945 462.192017,1305.767456 
	C462.114532,1333.289307 462.114532,1360.373901 462.114532,1387.679688 
	C438.061188,1387.679688 414.841217,1387.679688 390.995300,1387.679688 
	C390.995300,1385.414307 390.995331,1383.466187 390.995300,1381.518066 
	C390.994781,1350.536499 391.012726,1319.554810 390.947906,1288.573364 
	C390.944000,1286.703979 390.280334,1284.835815 389.923645,1282.967163 
	C389.923645,1282.967163 390.031006,1282.968994 389.774902,1282.680420 
	C381.395477,1282.280884 373.272156,1282.170044 365.148834,1282.059082 
	C365.087097,1259.683105 365.025360,1237.307251 364.961395,1214.000000 
	C364.972748,1148.195923 364.991150,1083.323242 364.992981,1018.450439 
	C364.993164,1011.300171 364.898071,1004.149841 364.847168,996.999573 
z"/>
<path fill="#F8A69A" opacity="1.000000" stroke="none" 
	d="
M726.001404,559.004150 
	C718.914124,559.306641 711.826599,559.851746 704.739624,559.845154 
	C697.277527,559.838135 689.817871,559.119019 682.353699,559.040283 
	C668.870361,558.898010 655.383362,559.094666 641.900330,558.938232 
	C638.290771,558.896423 636.661743,559.948669 636.952393,563.747253 
	C637.192993,566.891846 637.012207,570.069763 636.995972,573.232788 
	C636.641052,642.458130 636.283081,711.683533 635.471741,781.384644 
	C613.053955,781.573547 591.090820,781.152893 569.126038,781.030762 
	C534.475952,780.838074 499.824677,780.845825 465.126709,780.323608 
	C465.385284,735.922363 465.710449,691.966370 465.991943,648.010132 
	C466.347046,592.556580 466.683533,537.102844 466.989563,481.648956 
	C467.067719,467.488312 467.000763,453.326874 467.465454,439.103546 
	C479.391846,439.037842 490.853851,438.958466 502.314606,439.045532 
	C533.193909,439.280151 564.072632,439.585785 595.219604,439.885986 
	C595.666260,439.893524 595.844971,439.878265 596.023682,439.863007 
	C617.392090,439.935059 638.760559,440.007141 660.932129,440.364258 
	C683.477234,440.725342 705.219299,440.801361 726.961304,440.877411 
	C726.961304,440.877411 727.128601,440.835266 727.096313,441.377258 
	C726.709900,480.947540 726.355652,519.975830 726.001404,559.004150 
z"/>
<path fill="#F14C5A" opacity="1.000000" stroke="none" 
	d="
M723.995239,995.036804 
	C742.325073,995.024902 760.655334,994.919678 778.984558,995.018799 
	C831.279114,995.301514 883.572937,995.715515 935.867493,995.988953 
	C1012.156860,996.387939 1088.446899,996.661682 1164.736206,997.087585 
	C1194.539917,997.254028 1224.342651,997.634705 1254.144409,998.023926 
	C1268.115723,998.206360 1282.083862,998.640259 1296.524902,999.448730 
	C1297.036133,1010.966370 1297.075928,1021.995361 1297.115723,1033.024414 
	C1297.115601,1060.806519 1297.115601,1088.588623 1297.115601,1116.971069 
	C1271.476562,1116.971069 1246.082275,1116.971069 1219.892700,1116.662354 
	C1218.115967,1116.236206 1217.134766,1116.016479 1216.153442,1116.016479 
	C1190.735229,1116.014771 1165.316895,1116.035889 1139.898682,1116.053223 
	C1114.153198,1116.025391 1088.407715,1115.997437 1061.867554,1115.662109 
	C1060.421875,1115.241455 1059.770996,1115.030029 1059.119873,1115.029541 
	C1035.622559,1115.009399 1012.125244,1114.993408 988.628174,1115.049316 
	C987.407410,1115.052246 986.188171,1115.690674 984.968262,1116.033203 
	C984.968262,1116.033203 985.036377,1115.988647 984.802979,1115.924561 
	C984.386780,1115.859253 984.203918,1115.858032 983.655396,1115.660278 
	C981.979248,1115.308838 980.669678,1115.026611 979.358154,1115.017456 
	C948.634094,1114.802490 917.909851,1114.616943 886.724243,1114.282593 
	C865.473877,1114.109619 844.684875,1114.080078 823.895874,1114.050537 
	C798.150696,1114.023804 772.405579,1113.997192 745.867676,1113.661377 
	C737.407043,1113.169312 729.739014,1112.986206 722.059082,1112.350098 
	C722.364685,1104.610596 722.921204,1097.325073 722.956299,1090.037231 
	C723.072266,1065.925537 722.922546,1041.812500 723.045837,1017.700806 
	C723.084473,1010.144714 723.663513,1002.591370 723.995239,995.036804 
z"/>
<path fill="#F14C5A" opacity="1.000000" stroke="none" 
	d="
M726.469604,559.023682 
	C726.355652,519.975830 726.709900,480.947540 727.126038,441.458252 
	C757.489868,441.006683 787.791748,441.016083 818.877197,441.361206 
	C834.231812,441.797638 848.802795,441.964020 863.373962,441.972931 
	C871.311096,441.977814 879.248291,441.715515 887.641846,441.574097 
	C897.420349,441.716309 906.742126,441.948334 916.064575,441.980927 
	C934.557678,442.045532 953.051147,441.987152 971.544495,442.010284 
	C975.681702,442.015442 979.818787,442.147003 984.170471,442.333069 
	C984.385010,442.445801 984.856506,442.557739 985.318604,442.704468 
	C1009.221680,442.884766 1032.662598,442.918396 1056.103516,442.951996 
	C1081.849487,442.978088 1107.595581,443.004181 1134.135376,443.338806 
	C1135.909912,443.764923 1136.890625,443.984924 1137.871338,443.985016 
	C1163.282715,443.987640 1188.694214,443.967377 1214.105591,443.951111 
	C1242.813843,443.951111 1271.522095,443.951111 1300.970825,443.951111 
	C1300.970825,451.532257 1300.970825,457.940094 1300.662109,465.141144 
	C1300.236328,466.915192 1300.017090,467.895996 1300.016968,468.876831 
	C1300.013672,494.953094 1300.032837,521.029358 1300.048218,547.105591 
	C1300.036621,552.069031 1300.025146,557.032471 1300.048340,562.454041 
	C1286.083984,562.941162 1272.084229,563.062256 1258.085693,562.982727 
	C1206.780273,562.691223 1155.475220,562.326965 1104.170044,562.001648 
	C1050.367310,561.660522 996.564514,561.347717 942.761902,560.994141 
	C895.458069,560.683228 848.154114,560.380432 800.851013,559.980530 
	C776.212402,559.772217 751.575500,559.362061 726.469604,559.023682 
z"/>
<path fill="#F16C5D" opacity="1.000000" stroke="none" 
	d="
M723.527466,995.023804 
	C723.663513,1002.591370 723.084473,1010.144714 723.045837,1017.700806 
	C722.922546,1041.812500 723.072266,1065.925537 722.956299,1090.037231 
	C722.921204,1097.325073 722.364685,1104.610596 721.586365,1112.405273 
	C698.701477,1112.950195 676.277222,1112.987183 653.853027,1113.023926 
	C634.878784,1113.023804 615.904541,1113.023560 596.214355,1113.056152 
	C595.330750,1113.114014 595.163025,1113.139160 594.530396,1113.104492 
	C562.512329,1112.699097 530.959473,1112.332764 499.406128,1112.019287 
	C487.278564,1111.898804 475.149811,1111.898804 463.014618,1111.385986 
	C463.012115,1087.854004 462.891876,1064.779175 463.056915,1041.706299 
	C463.215057,1019.600220 463.760193,997.497070 463.973846,975.391113 
	C464.370911,934.314636 464.693634,893.237366 464.962555,852.159790 
	C465.118317,828.363342 465.108978,804.565857 465.173920,780.768799 
	C499.824677,780.845825 534.475952,780.838074 569.126038,781.030762 
	C591.090820,781.152893 613.053955,781.573547 635.479980,781.842224 
	C635.627258,820.452393 635.263306,859.080444 635.017883,897.709167 
	C634.892029,917.507935 635.082214,937.308899 634.926025,957.107300 
	C634.843445,967.575989 634.486389,978.049988 633.927124,988.504150 
	C633.685669,993.016785 635.366272,994.239563 639.671082,994.115784 
	C649.160950,993.843140 658.665649,993.925293 668.161621,994.054321 
	C686.461914,994.302917 704.760437,994.684448 723.527466,995.023804 
z"/>
<path fill="#F14C5A" opacity="1.000000" stroke="none" 
	d="
M1304.802246,669.868591 
	C1305.301514,669.894043 1305.800781,669.938477 1306.300171,669.942078 
	C1358.599854,670.319580 1410.899658,670.693970 1463.677124,671.024048 
	C1490.134033,670.995300 1516.113159,671.011047 1542.876099,671.361816 
	C1558.718506,671.792847 1573.776978,671.888855 1588.835571,671.984863 
	C1588.880737,697.767578 1588.925781,723.550293 1588.662109,750.126587 
	C1588.235962,751.901245 1588.016235,752.882202 1588.016113,753.863159 
	C1588.013428,779.943237 1588.033447,806.023315 1588.049561,832.103394 
	C1588.024170,852.098206 1587.998901,872.092957 1587.447021,892.549194 
	C1564.912231,893.024475 1542.903687,893.038330 1520.895264,893.052124 
	C1499.242188,893.041809 1477.589233,893.031494 1455.249268,893.057495 
	C1454.562256,893.093811 1454.115112,893.103455 1454.115112,893.103455 
	C1404.342529,892.740295 1354.569946,892.377197 1304.212891,891.560547 
	C1303.605225,876.447876 1303.710938,861.786682 1303.473389,847.131042 
	C1303.409180,843.163574 1304.978882,842.416626 1308.474243,842.497192 
	C1316.965698,842.693115 1325.464722,842.561157 1333.960693,842.561279 
	C1336.882202,842.561340 1339.803711,842.561279 1343.134521,842.561279 
	C1343.134521,801.190796 1343.134521,760.629150 1343.134521,719.159058 
	C1330.256348,719.159058 1317.571167,719.159058 1304.802246,719.159058 
	C1304.802246,702.124390 1304.802246,685.996521 1304.802246,669.868591 
z"/>
<path fill="#342975" opacity="1.000000" stroke="none" 
	d="
M983.955933,442.220367 
	C979.818787,442.147003 975.681702,442.015442 971.544495,442.010284 
	C953.051147,441.987152 934.557678,442.045532 916.064575,441.980927 
	C906.742126,441.948334 897.420349,441.716309 887.579712,441.428894 
	C887.061218,441.283295 887.026306,440.965057 887.026306,440.965057 
	C887.033142,304.932770 887.040039,168.900482 887.547607,32.421951 
	C919.944580,31.975702 951.840881,31.975702 984.000732,31.975702 
	C984.000732,36.080448 983.979370,39.238880 984.004333,42.396950 
	C984.116455,56.550167 984.241638,70.703278 983.957886,84.846161 
	C982.899170,84.716553 982.243713,84.487854 981.590393,84.493896 
	C965.295288,84.644699 949.000610,84.847069 932.705322,84.980202 
	C924.507446,85.047180 924.026978,85.382019 924.023804,93.775513 
	C923.997192,163.858780 924.041077,233.942093 923.934265,304.025208 
	C923.927246,308.619904 925.485718,310.114594 930.026672,310.067078 
	C948.003357,309.878967 965.983093,309.990204 983.976807,310.459473 
	C983.979858,354.692474 983.967896,398.456421 983.955933,442.220367 
z"/>
<path fill="#342975" opacity="1.000000" stroke="none" 
	d="
M887.185608,1114.426025 
	C917.909851,1114.616943 948.634094,1114.802490 979.358154,1115.017456 
	C980.669678,1115.026611 981.979248,1115.308838 983.649780,1116.140747 
	C983.993774,1159.881470 983.977722,1202.945435 983.495728,1246.009644 
	C965.877197,1246.010010 948.724609,1246.006470 931.572083,1246.011230 
	C924.022400,1246.013306 924.009827,1246.020996 924.009460,1253.429810 
	C924.006104,1322.373169 924.005676,1391.316406 924.008789,1460.259766 
	C924.009277,1471.009644 924.020935,1470.896118 934.742676,1471.036133 
	C951.152771,1471.250366 967.560486,1471.639160 983.980835,1472.425171 
	C984.020264,1483.554443 984.048157,1494.212158 984.076050,1504.869995 
	C951.971741,1504.869995 919.867310,1504.869995 887.010864,1504.869995 
	C887.010864,1374.973511 887.010864,1245.470703 887.034912,1115.343262 
	C887.058960,1114.718384 887.185608,1114.426025 887.185608,1114.426025 
z"/>
<path fill="#505BAA" opacity="1.000000" stroke="none" 
	d="
M389.507233,573.949707 
	C389.955505,606.052551 390.086487,638.187439 389.932953,670.320984 
	C389.725494,713.747375 389.254791,757.172546 388.978119,800.598755 
	C388.600677,859.843079 388.301971,919.087830 387.950928,978.332336 
	C387.943146,979.647400 387.712341,980.961243 387.338989,982.598877 
	C384.463043,982.281311 381.840759,981.122559 379.203003,981.086121 
	C365.099670,980.891602 350.992432,980.977356 336.434265,980.449402 
	C335.832397,970.894714 335.682861,961.856812 335.545715,952.362854 
	C335.650452,925.271851 335.742828,898.636841 335.906616,871.536743 
	C335.985931,860.300720 335.974030,849.529785 336.007660,838.758972 
	C336.038635,828.843140 336.118591,818.927429 336.306427,808.561035 
	C336.569366,781.405151 336.702789,754.699768 336.906921,727.530396 
	C337.046692,706.379150 337.115723,685.692078 337.314362,664.555115 
	C337.491180,659.628357 337.562775,655.151550 337.581512,650.674500 
	C337.673004,628.782776 337.750397,606.891052 337.877441,584.750000 
	C337.897919,584.333679 337.873688,584.166565 337.849457,583.999512 
	C337.910858,580.950867 337.972260,577.902283 338.550140,574.416382 
	C353.053345,573.967834 367.040039,573.956543 381.026764,573.945312 
	C383.705566,573.957214 386.384369,573.969177 389.507233,573.949707 
z"/>
<path fill="#F14C5A" opacity="1.000000" stroke="none" 
	d="
M364.392334,342.000092 
	C364.899048,349.815674 364.993164,357.631348 364.992981,365.447021 
	C364.991425,429.654358 364.972382,493.861694 364.902893,558.534729 
	C328.418732,559.000427 291.990295,559.000427 255.026474,559.000427 
	C255.026474,516.383118 255.026474,474.151062 255.553345,431.457184 
	C266.982605,430.995880 277.885376,431.039948 288.787018,430.951477 
	C290.487885,430.937683 292.183868,430.319672 293.882111,429.981018 
	C293.882111,414.851837 293.882111,399.722626 293.882111,384.071533 
	C309.066559,384.071533 323.791351,384.071533 338.854523,384.071533 
	C338.854523,369.950867 338.854523,356.346680 338.854523,342.000183 
	C347.431946,342.000183 355.684021,342.000183 364.392334,342.000092 
z"/>
<path fill="#F14C5A" opacity="1.000000" stroke="none" 
	d="
M364.391022,996.999878 
	C364.898071,1004.149841 364.993164,1011.300171 364.992981,1018.450439 
	C364.991150,1083.323242 364.972748,1148.195923 364.903900,1213.534424 
	C356.395782,1214.000122 347.942932,1214.000122 339.151245,1214.000122 
	C339.151245,1199.954102 339.151245,1186.351562 339.151245,1172.229736 
	C324.098358,1172.229736 309.375214,1172.229736 293.982513,1172.229736 
	C293.982513,1156.794312 293.982513,1141.872070 293.676514,1126.163574 
	C280.635193,1125.255005 267.899841,1125.132812 255.164459,1125.010620 
	C255.110138,1083.549927 255.055771,1042.089355 255.001633,1000.628662 
	C255.000351,999.648315 255.001480,998.667969 255.001480,997.000122 
	C291.483612,997.000122 327.709259,997.000122 364.391022,996.999878 
z"/>
<path fill="#505BAA" opacity="1.000000" stroke="none" 
	d="
M463.021576,1111.843872 
	C475.149811,1111.898804 487.278564,1111.898804 499.406128,1112.019287 
	C530.959473,1112.332764 562.512329,1112.699097 594.531311,1113.561157 
	C594.997253,1141.944702 594.997253,1169.811646 594.997253,1197.999268 
	C580.863159,1197.999268 567.721924,1197.956787 554.581543,1198.047363 
	C552.708618,1198.060181 550.840088,1198.718628 548.969543,1199.078369 
	C548.969543,1199.078369 548.970947,1198.971191 548.688904,1199.234131 
	C548.287476,1217.947021 548.168091,1236.397095 548.048706,1254.847046 
	C530.261353,1254.847046 512.473938,1254.847046 493.970276,1254.847046 
	C493.970276,1271.618652 493.970276,1287.868286 493.457733,1304.562012 
	C482.719940,1305.114136 472.494690,1305.222168 462.269470,1305.330078 
	C462.191681,1303.668945 462.046112,1302.007568 462.045959,1300.346313 
	C462.041077,1237.930054 462.049622,1175.513672 462.302032,1112.559082 
	C462.705658,1111.961670 462.863617,1111.902832 463.021576,1111.843872 
z"/>
<path fill="#505BAA" opacity="1.000000" stroke="none" 
	d="
M594.951538,439.863220 
	C564.072632,439.585785 533.193909,439.280151 502.314606,439.045532 
	C490.853851,438.958466 479.391846,439.037842 467.065857,439.042175 
	C465.122894,438.978577 464.044434,438.914154 462.965973,438.849731 
	C462.655975,436.722839 462.076385,434.596161 462.075195,432.469116 
	C462.042023,372.265350 462.067169,312.061554 462.558136,251.414032 
	C473.310150,250.961121 483.586792,250.951935 493.863434,250.942749 
	C493.863434,267.399017 493.863434,283.855316 493.863434,301.034210 
	C511.948883,301.034210 529.530640,301.034210 547.566284,301.551758 
	C548.013611,318.688202 547.975830,335.307220 548.047791,351.925751 
	C548.055176,353.628815 548.719055,355.329010 549.078247,357.030548 
	C549.078247,357.030548 548.971130,357.028900 549.233643,357.311493 
	C564.547852,357.594086 579.599426,357.594086 594.951538,357.594086 
	C594.951538,385.919525 594.951538,412.891388 594.951538,439.863220 
z"/>
<path fill="#FFF7AB" opacity="1.000000" stroke="none" 
	d="
M336.836243,727.994446 
	C336.702789,754.699768 336.569366,781.405151 335.894012,808.559082 
	C326.573090,809.007629 317.794037,809.007629 308.932983,809.007629 
	C308.486938,806.773743 308.144043,805.056335 307.695679,802.810791 
	C293.584839,802.810791 279.703766,802.810791 265.491638,802.810791 
	C266.244659,796.997437 263.223633,796.481323 258.936310,796.565857 
	C246.954865,796.802307 234.965454,796.680847 222.979858,796.603516 
	C221.421478,796.593384 218.684860,796.323730 218.506729,795.645569 
	C217.523239,791.901550 214.709213,793.047913 212.490509,793.042969 
	C185.854828,792.982910 159.218964,793.003662 132.583145,793.003296 
	C130.667374,793.003296 128.751617,793.003296 126.185051,793.003296 
	C127.792801,786.341553 123.969475,786.584473 119.948166,786.609314 
	C104.799614,786.702942 89.650146,786.646912 74.501022,786.646667 
	C66.027069,786.646545 66.031380,786.645813 65.061653,778.261780 
	C65.029434,777.983093 64.719215,777.736572 64.212120,777.002502 
	C52.741962,777.002502 40.953457,777.002502 29.164953,777.002502 
	C29.114220,771.641663 29.063486,766.280762 29.547209,760.457275 
	C41.683685,759.994629 53.285706,759.994629 64.889336,759.994629 
	C65.255676,757.361572 65.525208,755.424316 65.868301,752.958313 
	C85.933235,752.958313 105.832443,752.958313 125.605309,752.958313 
	C127.368645,744.352783 127.368645,744.347961 136.233383,744.347839 
	C161.708817,744.347351 187.184326,744.371887 212.659576,744.306091 
	C214.356537,744.301697 217.378265,743.908020 217.527618,743.211487 
	C218.355957,739.348877 221.178238,740.403687 223.438431,740.388977 
	C235.093369,740.312988 246.752716,740.184875 258.402649,740.437439 
	C262.979431,740.536621 266.372437,740.065430 265.717377,733.875000 
	C280.031708,733.875000 293.949036,733.875000 307.871429,733.875000 
	C308.232880,731.741821 308.505432,730.133423 308.867859,727.994446 
	C318.282349,727.994446 327.559265,727.994446 336.836243,727.994446 
z"/>
<path fill="#EB4326" opacity="1.000000" stroke="none" 
	d="
M335.835205,872.001892 
	C335.742828,898.636841 335.650452,925.271851 335.405701,952.416321 
	C335.253357,952.925842 334.970551,953.032593 334.970551,953.032593 
	C326.617859,953.011353 318.265198,952.990112 309.449097,952.443970 
	C308.988892,946.118103 309.105713,940.313965 308.947083,934.517456 
	C308.868896,931.660522 308.281738,928.817505 307.924896,925.968201 
	C307.924896,925.968201 308.030029,925.969910 307.779480,925.675049 
	C293.812164,925.380127 280.095337,925.380127 265.995667,925.380127 
	C265.995667,917.687195 266.094971,911.215454 265.950287,904.749146 
	C265.885986,901.874878 265.329407,899.011719 264.996277,896.143494 
	C249.552551,896.143494 234.108841,896.143494 217.975266,896.143494 
	C217.975266,890.442261 217.975266,885.187927 217.677170,879.134033 
	C215.562759,878.225281 213.746506,878.022461 211.930099,878.020996 
	C185.656525,878.000061 159.382950,878.006226 133.109360,878.005859 
	C131.197815,878.005859 129.286270,878.005859 126.992279,878.005859 
	C126.992279,870.679932 127.091133,864.212280 126.947105,857.750000 
	C126.883072,854.877197 126.329124,852.015320 125.997543,849.148438 
	C106.302162,849.089294 86.606781,849.030090 66.448807,848.445923 
	C66.042198,836.649109 66.098175,825.377319 66.611801,814.068848 
	C86.654503,814.032104 106.239563,814.032104 126.342598,814.032104 
	C126.342598,818.215576 126.612915,821.707397 126.275406,825.139465 
	C125.835686,829.610962 127.574257,830.782898 131.925247,830.753113 
	C158.565216,830.570679 185.207047,830.654053 211.848251,830.674438 
	C213.767365,830.675903 215.686310,830.880676 217.755524,830.999573 
	C217.952225,834.278992 218.115814,837.006470 218.304352,840.149658 
	C234.123886,840.149658 249.382996,840.149658 265.344940,840.149658 
	C265.344940,844.365479 265.548645,848.154175 265.287903,851.910645 
	C265.025177,855.696045 266.551331,856.799255 270.195679,856.723450 
	C279.682526,856.526123 289.176605,856.600220 298.666962,856.673767 
	C309.773407,856.759827 308.175568,855.300537 308.346985,866.083923 
	C308.375427,867.874573 308.498962,869.663757 308.602936,872.001892 
	C317.942108,872.001892 326.888641,872.001892 335.835205,872.001892 
z"/>
<path fill="#EA4326" opacity="1.000000" stroke="none" 
	d="
M337.832764,584.999329 
	C337.750397,606.891052 337.673004,628.782776 337.581512,650.674500 
	C337.562775,655.151550 337.491180,659.628357 336.903839,664.554810 
	C327.244263,665.004395 318.124786,665.004395 308.339447,665.004395 
	C308.339447,667.664490 308.356140,669.782227 308.336548,671.899658 
	C308.249023,681.363831 309.352020,680.280945 299.671997,680.329407 
	C289.677124,680.379456 279.680634,680.430115 269.687408,680.292908 
	C266.485016,680.249023 265.134796,681.299744 265.298492,684.601074 
	C265.493378,688.530701 265.344421,692.477356 265.344421,697.040466 
	C249.240189,697.040466 233.849823,697.040466 218.255325,697.040466 
	C218.052536,700.403748 217.887329,703.143982 217.694672,706.339355 
	C215.237259,706.339355 213.266907,706.339294 211.296555,706.339355 
	C184.809479,706.339539 158.321640,706.440735 131.836060,706.242126 
	C127.350723,706.208496 125.900871,707.613098 126.270874,711.952332 
	C126.595222,715.756226 126.158615,719.620667 126.393356,723.437744 
	C126.615280,727.046570 125.447220,728.446777 121.626221,728.408813 
	C103.137764,728.224792 84.646873,728.285522 66.100899,727.771423 
	C66.044952,717.698975 66.044952,708.114502 66.044952,697.993103 
	C68.481956,697.993103 70.269188,697.993103 72.056419,697.993103 
	C88.352814,697.993164 104.649368,698.024475 120.945396,697.946411 
	C122.642517,697.938293 124.336540,697.281311 126.031998,696.925293 
	C126.031998,696.925293 126.030365,697.030212 126.324799,696.779053 
	C126.619232,684.135986 126.619232,671.744141 126.619232,658.994324 
	C129.843674,658.994324 131.824036,658.994324 133.804382,658.994324 
	C159.950638,658.994019 186.096954,659.014221 212.243057,658.950500 
	C214.114426,658.945923 215.984283,658.327698 217.854843,657.994812 
	C217.854843,652.536316 217.854843,647.077820 217.854843,640.973389 
	C233.587143,640.973389 248.826385,640.973389 264.864685,640.673218 
	C265.663727,631.114624 265.663727,621.856201 265.663727,611.994263 
	C268.408691,611.994263 270.190002,611.994263 271.971283,611.994263 
	C282.293915,611.994263 292.616974,612.042542 302.938690,611.946411 
	C304.639496,611.930603 306.334381,611.281616 308.031982,610.925293 
	C308.031982,610.925293 308.030304,611.030151 308.325012,610.779297 
	C308.619720,602.128540 308.619720,593.728577 308.619720,584.999329 
	C319.201050,584.999329 328.516907,584.999329 337.832764,584.999329 
z"/>
<path fill="#FFE401" opacity="1.000000" stroke="none" 
	d="
M335.906616,871.536743 
	C326.888641,872.001892 317.942108,872.001892 308.602936,872.001892 
	C308.498962,869.663757 308.375427,867.874573 308.346985,866.083923 
	C308.175568,855.300537 309.773407,856.759827 298.666962,856.673767 
	C289.176605,856.600220 279.682526,856.526123 270.195679,856.723450 
	C266.551331,856.799255 265.025177,855.696045 265.287903,851.910645 
	C265.548645,848.154175 265.344940,844.365479 265.344940,840.149658 
	C249.382996,840.149658 234.123886,840.149658 218.304352,840.149658 
	C218.115814,837.006470 217.952225,834.278992 217.755524,830.999573 
	C215.686310,830.880676 213.767365,830.675903 211.848251,830.674438 
	C185.207047,830.654053 158.565216,830.570679 131.925247,830.753113 
	C127.574257,830.782898 125.835686,829.610962 126.275406,825.139465 
	C126.612915,821.707397 126.342598,818.215576 126.342598,814.032104 
	C106.239563,814.032104 86.654503,814.032104 66.492485,813.625732 
	C65.702759,811.126221 65.489998,809.033020 65.389977,806.492004 
	C65.555901,802.407104 65.440331,798.757568 65.709450,795.136475 
	C65.981903,791.470825 64.619347,790.201416 60.909607,790.270508 
	C50.325825,790.467529 39.736019,790.340637 29.148582,790.341187 
	C29.104671,786.202454 29.060760,782.063782 29.090900,777.463745 
	C40.953457,777.002502 52.741962,777.002502 64.212120,777.002502 
	C64.719215,777.736572 65.029434,777.983093 65.061653,778.261780 
	C66.031380,786.645813 66.027069,786.646545 74.501022,786.646667 
	C89.650146,786.646912 104.799614,786.702942 119.948166,786.609314 
	C123.969475,786.584473 127.792801,786.341553 126.185051,793.003296 
	C128.751617,793.003296 130.667374,793.003296 132.583145,793.003296 
	C159.218964,793.003662 185.854828,792.982910 212.490509,793.042969 
	C214.709213,793.047913 217.523239,791.901550 218.506729,795.645569 
	C218.684860,796.323730 221.421478,796.593384 222.979858,796.603516 
	C234.965454,796.680847 246.954865,796.802307 258.936310,796.565857 
	C263.223633,796.481323 266.244659,796.997437 265.491638,802.810791 
	C279.703766,802.810791 293.584839,802.810791 307.695679,802.810791 
	C308.144043,805.056335 308.486938,806.773743 308.932983,809.007629 
	C317.794037,809.007629 326.573090,809.007629 335.764526,809.009644 
	C336.118591,818.927429 336.038635,828.843140 336.007660,838.758972 
	C335.974030,849.529785 335.985931,860.300720 335.906616,871.536743 
z"/>
<path fill="#FFE301" opacity="1.000000" stroke="none" 
	d="
M66.156845,728.259460 
	C84.646873,728.285522 103.137764,728.224792 121.626221,728.408813 
	C125.447220,728.446777 126.615280,727.046570 126.393356,723.437744 
	C126.158615,719.620667 126.595222,715.756226 126.270874,711.952332 
	C125.900871,707.613098 127.350723,706.208496 131.836060,706.242126 
	C158.321640,706.440735 184.809479,706.339539 211.296555,706.339355 
	C213.266907,706.339294 215.237259,706.339355 217.694672,706.339355 
	C217.887329,703.143982 218.052536,700.403748 218.255325,697.040466 
	C233.849823,697.040466 249.240189,697.040466 265.344421,697.040466 
	C265.344421,692.477356 265.493378,688.530701 265.298492,684.601074 
	C265.134796,681.299744 266.485016,680.249023 269.687408,680.292908 
	C279.680634,680.430115 289.677124,680.379456 299.671997,680.329407 
	C309.352020,680.280945 308.249023,681.363831 308.336548,671.899658 
	C308.356140,669.782227 308.339447,667.664490 308.339447,665.004395 
	C318.124786,665.004395 327.244263,665.004395 336.774261,665.004639 
	C337.115723,685.692078 337.046692,706.379150 336.906921,727.530396 
	C327.559265,727.994446 318.282349,727.994446 308.867859,727.994446 
	C308.505432,730.133423 308.232880,731.741821 307.871429,733.875000 
	C293.949036,733.875000 280.031708,733.875000 265.717377,733.875000 
	C266.372437,740.065430 262.979431,740.536621 258.402649,740.437439 
	C246.752716,740.184875 235.093369,740.312988 223.438431,740.388977 
	C221.178238,740.403687 218.355957,739.348877 217.527618,743.211487 
	C217.378265,743.908020 214.356537,744.301697 212.659576,744.306091 
	C187.184326,744.371887 161.708817,744.347351 136.233383,744.347839 
	C127.368645,744.347961 127.368645,744.352783 125.605309,752.958313 
	C105.832443,752.958313 85.933235,752.958313 65.868301,752.958313 
	C65.525208,755.424316 65.255676,757.361572 64.889336,759.994629 
	C53.285706,759.994629 41.683685,759.994629 29.623535,759.994873 
	C29.116066,755.968750 29.066725,751.942444 29.549498,747.457520 
	C41.659145,746.998901 53.236679,746.998901 64.921455,746.998901 
	C64.921455,740.819092 64.921455,735.383118 64.921455,729.947205 
	C64.921455,729.947205 64.975586,729.927612 65.216537,729.813965 
	C65.690605,729.220032 65.923729,728.739746 66.156845,728.259460 
z"/>
<path fill="#2E4990" opacity="1.000000" stroke="none" 
	d="
M1069.075317,1404.007568 
	C1069.037231,1412.379761 1068.999023,1420.752075 1068.453369,1429.571533 
	C1055.951904,1429.995483 1043.957886,1429.972290 1031.969971,1429.483765 
	C1031.972412,1382.029785 1031.968628,1335.041016 1032.435425,1288.035034 
	C1044.892090,1287.989746 1056.878296,1287.961548 1068.864380,1287.933350 
	C1068.916992,1296.307739 1068.969482,1304.682251 1069.036377,1313.756592 
	C1069.050903,1314.456665 1069.044800,1314.922852 1069.031738,1315.396484 
	C1069.026855,1344.939941 1069.034912,1374.009888 1069.046631,1403.311768 
	C1069.050537,1403.543945 1069.075317,1404.007568 1069.075317,1404.007568 
z"/>
<path fill="#2E4990" opacity="1.000000" stroke="none" 
	d="
M1069.078247,242.008469 
	C1069.039185,250.380890 1069.000122,258.753326 1068.453979,267.572540 
	C1055.952759,267.995483 1043.958740,267.971619 1031.970947,267.482727 
	C1031.972778,220.028854 1031.968384,173.040039 1032.434570,126.035080 
	C1044.891357,125.990997 1056.877563,125.963036 1068.863647,125.935074 
	C1068.916016,134.309235 1068.968506,142.683395 1069.035400,151.756775 
	C1069.050049,152.455994 1069.042847,152.920197 1069.030273,153.394104 
	C1069.026611,182.937744 1069.035767,212.007446 1069.048096,241.310181 
	C1069.051392,241.543182 1069.078247,242.008469 1069.078247,242.008469 
z"/>
<path fill="#EB4326" opacity="1.000000" stroke="none" 
	d="
M206.164612,938.010132 
	C206.119415,927.646667 206.074219,917.283142 206.554550,906.456543 
	C217.519745,905.993408 227.959412,905.993408 238.549255,905.993408 
	C238.549255,916.980408 238.549255,927.325500 238.549255,938.010132 
	C227.452835,938.010132 216.808716,938.010132 206.164612,938.010132 
z"/>
<path fill="#EB4326" opacity="1.000000" stroke="none" 
	d="
M206.166199,631.011963 
	C206.120911,620.646851 206.075638,610.281738 206.554932,599.453796 
	C217.518692,598.990967 227.957855,598.990967 238.548676,598.990967 
	C238.548676,609.979675 238.548676,620.323853 238.548676,631.011963 
	C227.452225,631.011963 216.809204,631.011963 206.166199,631.011963 
z"/>
<path fill="#EB4625" opacity="1.000000" stroke="none" 
	d="
M29.080580,790.772705 
	C39.736019,790.340637 50.325825,790.467529 60.909607,790.270508 
	C64.619347,790.201416 65.981903,791.470825 65.709450,795.136475 
	C65.440331,798.757568 65.555901,802.407104 65.311073,806.559631 
	C65.119431,807.075073 64.911926,807.123901 64.911926,807.123901 
	C53.200523,807.123901 41.489120,807.123901 29.012577,807.123901 
	C29.012577,801.616638 29.012577,796.410400 29.080580,790.772705 
z"/>
<path fill="#EB4326" opacity="1.000000" stroke="none" 
	d="
M64.458405,729.969116 
	C64.921455,735.383118 64.921455,740.819092 64.921455,746.998901 
	C53.236679,746.998901 41.659145,746.998901 29.623959,746.999390 
	C29.166304,741.549072 29.166304,736.098389 29.166304,729.991028 
	C40.878635,729.991028 52.436996,729.991028 64.458405,729.969116 
z"/>
<path fill="#FFE401" opacity="1.000000" stroke="none" 
	d="
M161.998306,906.001221 
	C161.998306,902.876709 161.998306,900.241577 161.998306,897.303528 
	C168.287872,897.303528 174.337860,897.303528 180.697388,897.303528 
	C180.697388,902.958374 180.697388,908.676086 180.697388,914.699585 
	C174.705673,914.699585 168.654968,914.699585 161.998306,914.699585 
	C161.998306,912.009399 161.998306,909.250061 161.998306,906.001221 
z"/>
<path fill="#FFE401" opacity="1.000000" stroke="none" 
	d="
M180.832993,622.836670 
	C180.832993,628.302734 180.832993,633.768799 180.832993,639.983032 
	C175.218796,639.983032 169.499908,639.983032 163.313522,639.450256 
	C162.851349,634.803345 162.966034,630.685364 162.823547,626.576355 
	C162.728683,623.840332 163.714508,622.735718 166.517044,622.820435 
	C171.284836,622.964661 176.060593,622.845337 180.832993,622.836670 
z"/>
<path fill="#AD9DCA" opacity="1.000000" stroke="none" 
	d="
M462.191986,1305.767334 
	C472.494690,1305.222168 482.719940,1305.114136 493.404297,1305.031616 
	C492.379944,1305.377075 490.899109,1305.958618 489.412537,1305.973755 
	C480.782990,1306.061890 472.152130,1306.016846 463.105438,1306.016846 
	C463.105438,1333.771973 463.105438,1361.171753 463.105438,1388.783691 
	C438.612152,1388.783691 414.538391,1388.783691 389.993164,1388.783691 
	C389.993164,1353.780518 389.993164,1318.844727 389.958405,1283.437988 
	C390.280334,1284.835815 390.944000,1286.703979 390.947906,1288.573364 
	C391.012726,1319.554810 390.994781,1350.536499 390.995300,1381.518066 
	C390.995331,1383.466187 390.995300,1385.414307 390.995300,1387.679688 
	C414.841217,1387.679688 438.061188,1387.679688 462.114532,1387.679688 
	C462.114532,1360.373901 462.114532,1333.289307 462.191986,1305.767334 
z"/>
<path fill="#AD9DCA" opacity="1.000000" stroke="none" 
	d="
M493.700562,250.543579 
	C483.586792,250.951935 473.310150,250.961121 462.576538,250.940125 
	C462.119568,223.499847 462.119568,196.089767 462.119568,168.339432 
	C438.215576,168.339432 415.010864,168.339432 390.995331,168.339432 
	C390.995331,170.374725 390.995331,172.296371 390.995331,174.218018 
	C390.995056,205.004120 391.001923,235.790222 390.977905,266.576324 
	C390.976349,268.557037 390.736633,270.537567 390.265747,272.775696 
	C389.923798,237.924530 389.923798,202.815857 389.923798,167.354385 
	C414.206177,167.354385 438.373810,167.354385 462.920715,167.354385 
	C462.920715,194.657562 462.920715,222.029831 462.920715,250.144394 
	C473.371735,250.144394 483.454712,250.144394 493.700562,250.543579 
z"/>
<path fill="#F6A5AC" opacity="1.000000" stroke="none" 
	d="
M1228.006348,152.167191 
	C1255.451050,152.167191 1282.895752,152.167191 1310.670654,152.167191 
	C1310.670654,181.928452 1310.670654,211.755203 1310.670654,241.981384 
	C1283.416382,241.981384 1256.176636,241.981384 1228.437500,241.724442 
	C1227.937988,241.467499 1227.813843,241.114182 1227.869141,241.031555 
	C1227.924438,240.948914 1228.092529,240.842392 1228.550781,240.896149 
	C1254.500366,240.966202 1279.992065,240.953629 1305.483276,241.038025 
	C1308.419067,241.047729 1310.076416,240.614288 1310.060303,237.023819 
	C1309.940552,210.366302 1309.963501,183.707916 1310.042725,157.050095 
	C1310.051636,154.083740 1309.158813,152.934830 1306.058960,152.951523 
	C1280.070190,153.091522 1254.080811,153.104706 1228.007568,153.102615 
	C1227.923584,153.049149 1227.813354,152.883484 1227.874756,152.707932 
	C1227.936035,152.532379 1228.006348,152.167191 1228.006348,152.167191 
z"/>
<path fill="#F6A5AC" opacity="1.000000" stroke="none" 
	d="
M1228.011719,1314.165283 
	C1255.455933,1314.165283 1282.900146,1314.165283 1310.672485,1314.165283 
	C1310.672485,1343.931885 1310.672485,1373.758423 1310.672485,1403.981445 
	C1283.412109,1403.981445 1256.171997,1403.981445 1228.433838,1403.724487 
	C1227.935913,1403.467529 1227.813354,1403.116577 1227.868896,1403.033203 
	C1227.924438,1402.949951 1228.091553,1402.843872 1228.549805,1402.897827 
	C1254.499634,1402.968018 1279.991211,1402.955688 1305.482422,1403.039551 
	C1308.415894,1403.049194 1310.078003,1402.618896 1310.061768,1399.026489 
	C1309.941162,1372.369019 1309.963257,1345.710571 1310.041260,1319.052856 
	C1310.049927,1316.089355 1309.163086,1314.937012 1306.059814,1314.953735 
	C1280.071167,1315.094116 1254.081665,1315.106567 1228.008545,1315.104492 
	C1227.924438,1315.051270 1227.813965,1314.885986 1227.875977,1314.709229 
	C1227.938110,1314.532593 1228.011719,1314.165283 1228.011719,1314.165283 
z"/>
<path fill="#9995BA" opacity="1.000000" stroke="none" 
	d="
M1227.542969,152.096588 
	C1228.006348,152.167191 1227.936035,152.532379 1227.424805,152.751572 
	C1174.289917,152.953903 1121.666382,152.937057 1069.042847,152.920197 
	C1069.042847,152.920197 1069.050049,152.455994 1069.062744,152.224243 
	C1121.743408,152.003662 1174.411377,152.014832 1227.542969,152.096588 
z"/>
<path fill="#9995BA" opacity="1.000000" stroke="none" 
	d="
M1227.813843,241.114182 
	C1227.813843,241.114182 1227.937988,241.467499 1227.974609,241.651062 
	C1207.244263,241.889847 1186.477173,241.975647 1165.710205,241.993225 
	C1133.806519,242.020248 1101.902710,242.000366 1069.538574,242.004425 
	C1069.078247,242.008469 1069.051392,241.543182 1069.511963,241.283218 
	C1122.586182,241.053558 1175.200073,241.083862 1227.813843,241.114182 
z"/>
<path fill="#9995BA" opacity="1.000000" stroke="none" 
	d="
M1227.813354,1403.116577 
	C1227.813354,1403.116577 1227.935913,1403.467529 1227.970947,1403.650146 
	C1207.239258,1403.887939 1186.472656,1403.973511 1165.706055,1403.991211 
	C1133.802979,1404.018433 1101.899902,1403.999023 1069.536133,1404.003418 
	C1069.075317,1404.007568 1069.050537,1403.543945 1069.510742,1403.284424 
	C1122.585083,1403.055542 1175.199219,1403.086060 1227.813354,1403.116577 
z"/>
<path fill="#9995BA" opacity="1.000000" stroke="none" 
	d="
M1227.547852,1314.094482 
	C1228.011719,1314.165283 1227.938110,1314.532593 1227.425903,1314.752686 
	C1174.290771,1314.956177 1121.667725,1314.939453 1069.044800,1314.922852 
	C1069.044800,1314.922852 1069.050903,1314.456665 1069.064575,1314.224121 
	C1121.746826,1314.002197 1174.415283,1314.012939 1227.547852,1314.094482 
z"/>
<path fill="#9995BA" opacity="1.000000" stroke="none" 
	d="
M984.362061,84.856430 
	C984.241638,70.703278 984.116455,56.550167 984.004333,42.396950 
	C983.979370,39.238880 984.000732,36.080448 984.000732,31.975702 
	C951.840881,31.975702 919.944580,31.975702 887.589478,31.950260 
	C887.633362,31.622005 888.135742,31.054810 888.638916,31.054150 
	C920.595276,31.012218 952.551636,31.016380 985.001160,31.016380 
	C985.001160,48.505642 985.001160,65.769318 985.016602,83.666908 
	C985.032104,84.300827 985.016602,84.635902 984.851562,84.686943 
	C984.686462,84.737984 984.362122,84.856430 984.362061,84.856430 
z"/>
<path fill="#9995BA" opacity="1.000000" stroke="none" 
	d="
M984.170471,442.333069 
	C983.967896,398.456421 983.979858,354.692474 984.245178,310.410278 
	C984.674927,309.936340 984.851379,309.980591 985.019897,310.017822 
	C985.011841,310.010742 985.018494,310.022705 985.018494,310.022705 
	C985.011597,353.673126 985.004639,397.323517 984.984558,441.606079 
	C984.971375,442.238251 984.856506,442.557739 984.856506,442.557739 
	C984.856506,442.557739 984.385010,442.445801 984.170471,442.333069 
z"/>
<path fill="#A8ADD3" opacity="1.000000" stroke="none" 
	d="
M549.440186,1199.044067 
	C550.840088,1198.718628 552.708618,1198.060181 554.581543,1198.047363 
	C567.721924,1197.956787 580.863159,1197.999268 594.997253,1197.999268 
	C594.997253,1169.811646 594.997253,1141.944702 594.996338,1113.621094 
	C595.163025,1113.139160 595.330750,1113.114014 595.750244,1113.124268 
	C596.002075,1141.617310 596.002075,1170.074829 596.002075,1199.009766 
	C580.451843,1199.009766 565.181396,1199.009766 549.440186,1199.044067 
z"/>
<path fill="#F4A293" opacity="1.000000" stroke="none" 
	d="
M217.398438,657.997559 
	C215.984283,658.327698 214.114426,658.945923 212.243057,658.950500 
	C186.096954,659.014221 159.950638,658.994019 133.804382,658.994324 
	C131.824036,658.994324 129.843674,658.994324 126.619232,658.994324 
	C126.619232,671.744141 126.619232,684.135986 126.272339,696.780090 
	C125.925438,684.218201 125.925438,671.404053 125.925438,658.000244 
	C156.427322,658.000244 186.684677,658.000244 217.398438,657.997559 
z"/>
<path fill="#9995BA" opacity="1.000000" stroke="none" 
	d="
M983.961670,1246.009277 
	C983.977722,1202.945435 983.993774,1159.881470 984.015442,1116.337158 
	C984.203918,1115.858032 984.386780,1115.859253 984.825928,1115.958252 
	C985.055298,1159.051758 985.028320,1202.047485 985.006592,1245.515747 
	C985.011902,1245.988159 985.027954,1245.975220 984.763306,1246.041504 
	C984.319580,1246.075073 984.140625,1246.042114 983.961670,1246.009277 
z"/>
<path fill="#A8ADD3" opacity="1.000000" stroke="none" 
	d="
M595.219604,439.885986 
	C594.951538,412.891388 594.951538,385.919525 594.951538,357.594086 
	C579.599426,357.594086 564.547852,357.594086 549.232666,357.257965 
	C564.409302,356.921844 579.849426,356.921844 596.001892,356.921844 
	C596.001892,384.339111 596.001892,411.644104 596.012817,439.406067 
	C595.844971,439.878265 595.666260,439.893524 595.219604,439.885986 
z"/>
<path fill="#F4A293" opacity="1.000000" stroke="none" 
	d="
M125.999519,849.604614 
	C126.329124,852.015320 126.883072,854.877197 126.947105,857.750000 
	C127.091133,864.212280 126.992279,870.679932 126.992279,878.005859 
	C129.286270,878.005859 131.197815,878.005859 133.109360,878.005859 
	C159.382950,878.006226 185.656525,878.000061 211.930099,878.020996 
	C213.746506,878.022461 215.562759,878.225281 217.618454,878.669556 
	C187.426788,879.004700 156.995758,879.004700 126.001495,879.004700 
	C126.001495,869.227234 126.001495,859.643982 125.999519,849.604614 
z"/>
<path fill="#F4A293" opacity="1.000000" stroke="none" 
	d="
M206.304779,938.420044 
	C216.808716,938.010132 227.452835,938.010132 238.549255,938.010132 
	C238.549255,927.325500 238.549255,916.980408 238.549255,905.993408 
	C227.959412,905.993408 217.519745,905.993408 206.622314,905.991577 
	C206.960327,905.660461 207.754333,905.049561 208.552155,905.044617 
	C218.825943,904.980042 229.100266,905.002014 239.686493,905.002014 
	C239.686493,916.287048 239.686493,927.444763 239.686493,938.830017 
	C228.573044,938.830017 217.509003,938.830017 206.304779,938.420044 
z"/>
<path fill="#F4A293" opacity="1.000000" stroke="none" 
	d="
M206.306961,631.421448 
	C216.809204,631.011963 227.452225,631.011963 238.548676,631.011963 
	C238.548676,620.323853 238.548676,609.979675 238.548676,598.990967 
	C227.957855,598.990967 217.518692,598.990967 206.621704,598.988464 
	C206.960480,598.657959 207.755295,598.049500 208.553879,598.044556 
	C218.826004,597.980225 229.098648,598.002014 239.684937,598.002014 
	C239.684937,609.288940 239.684937,620.444885 239.684937,631.830933 
	C228.572586,631.830933 217.510147,631.830933 206.306961,631.421448 
z"/>
<path fill="#F4A293" opacity="1.000000" stroke="none" 
	d="
M66.100899,727.771423 
	C65.923729,728.739746 65.690605,729.220032 65.227020,729.840759 
	C64.996552,719.205078 64.996552,708.428955 64.996552,696.992798 
	C85.099068,696.992798 105.094795,696.992798 125.561264,696.959045 
	C124.336540,697.281311 122.642517,697.938293 120.945396,697.946411 
	C104.649368,698.024475 88.352814,697.993164 72.056419,697.993103 
	C70.269188,697.993103 68.481956,697.993103 66.044952,697.993103 
	C66.044952,708.114502 66.044952,717.698975 66.100899,727.771423 
z"/>
<path fill="#F6A5AC" opacity="1.000000" stroke="none" 
	d="
M654.052979,1113.425781 
	C676.277222,1112.987183 698.701477,1112.950195 721.598389,1112.858276 
	C729.739014,1112.986206 737.407043,1113.169312 745.385132,1113.585327 
	C715.214478,1113.821533 684.733704,1113.824585 654.052979,1113.425781 
z"/>
<path fill="#9C9CC4" opacity="1.000000" stroke="none" 
	d="
M1032.028931,1431.031250 
	C1032.028931,1444.457642 1032.028931,1457.884033 1032.028931,1472.000610 
	C1016.620728,1472.000610 1001.288574,1472.000610 985.482666,1472.004883 
	C985.008850,1472.009033 985.027222,1472.026123 985.274658,1471.681641 
	C1000.522705,1471.337158 1015.523376,1471.337158 1031.003418,1471.337158 
	C1031.003418,1459.047363 1030.956543,1447.813477 1031.049683,1436.580811 
	C1031.065063,1434.722290 1031.692017,1432.868652 1032.021973,1431.010498 
	C1032.007568,1431.008057 1032.028931,1431.031250 1032.028931,1431.031250 
z"/>
<path fill="#9C9CC4" opacity="1.000000" stroke="none" 
	d="
M1032.029053,269.031586 
	C1032.029053,282.458374 1032.029053,295.885132 1032.029053,309.999908 
	C1016.619019,309.999908 1001.286072,309.999908 985.485840,310.011292 
	C985.018494,310.022705 985.011841,310.010742 985.267456,309.673431 
	C1000.523438,309.336121 1015.523743,309.336121 1031.004272,309.336121 
	C1031.004272,297.048401 1030.957520,285.814819 1031.050537,274.582428 
	C1031.066040,272.723236 1031.692383,270.869110 1032.021973,269.010559 
	C1032.007568,269.008453 1032.029053,269.031586 1032.029053,269.031586 
z"/>
<path fill="#9C9CC4" opacity="1.000000" stroke="none" 
	d="
M985.016602,84.635902 
	C985.016602,84.635902 985.032104,84.300827 985.022827,84.133400 
	C1000.553650,83.965973 1016.093811,83.965973 1032.000977,83.965973 
	C1032.000977,97.594841 1032.000977,110.815125 1032.005127,124.513199 
	C1032.009155,124.990997 1032.036133,124.987297 1031.689209,124.740761 
	C1031.342163,111.466499 1031.342163,98.438774 1031.342163,84.996445 
	C1028.085205,84.996445 1025.954590,85.012695 1023.824158,84.993782 
	C1010.888306,84.878944 997.952454,84.756081 985.016602,84.635902 
z"/>
<path fill="#9C9CC4" opacity="1.000000" stroke="none" 
	d="
M985.015137,1245.982910 
	C1000.557617,1245.977661 1016.096802,1245.977661 1032.000122,1245.977661 
	C1032.000122,1259.595947 1032.000122,1272.815796 1032.004639,1286.513428 
	C1032.009155,1286.991089 1032.036255,1286.987305 1031.689941,1286.740112 
	C1031.343506,1273.482910 1031.343506,1260.472778 1031.343506,1246.996582 
	C1017.046326,1246.996582 1003.823792,1247.036499 990.602051,1246.951294 
	C988.742004,1246.939209 986.885864,1246.315674 985.027954,1245.975220 
	C985.027954,1245.975220 985.011902,1245.988159 985.015137,1245.982910 
z"/>
<path fill="#F6A5AC" opacity="1.000000" stroke="none" 
	d="
M1588.442139,831.898254 
	C1588.033447,806.023315 1588.013428,779.943237 1588.016113,753.863159 
	C1588.016235,752.882202 1588.235962,751.901245 1588.585205,750.608521 
	C1588.823120,777.428894 1588.828857,804.561035 1588.442139,831.898254 
z"/>
<path fill="#F6A5AC" opacity="1.000000" stroke="none" 
	d="
M1300.441406,546.900940 
	C1300.032837,521.029358 1300.013672,494.953094 1300.016968,468.876831 
	C1300.017090,467.895996 1300.236328,466.915192 1300.584473,465.623840 
	C1300.821777,492.440948 1300.828247,519.568604 1300.441406,546.900940 
z"/>
<path fill="#F8B9C2" opacity="1.000000" stroke="none" 
	d="
M1412.902100,563.563232 
	C1387.840088,563.969116 1362.572510,563.987000 1337.304810,563.979370 
	C1336.157227,563.979065 1335.009644,563.748596 1333.532349,563.407959 
	C1359.700562,563.183838 1386.198608,563.177063 1412.902100,563.563232 
z"/>
<path fill="#F6A5AC" opacity="1.000000" stroke="none" 
	d="
M1140.104248,1116.445068 
	C1165.316895,1116.035889 1190.735229,1116.014771 1216.153442,1116.016479 
	C1217.134766,1116.016479 1218.115967,1116.236206 1219.412354,1116.584473 
	C1193.255005,1116.822754 1166.782471,1116.829956 1140.104248,1116.445068 
z"/>
<path fill="#F6A5AC" opacity="1.000000" stroke="none" 
	d="
M1213.901123,443.557800 
	C1188.694214,443.967377 1163.282715,443.987640 1137.871338,443.985016 
	C1136.890625,443.984924 1135.909912,443.764923 1134.617798,443.416626 
	C1160.769897,443.178802 1187.233276,443.171661 1213.901123,443.557800 
z"/>
<path fill="#F6A5AC" opacity="1.000000" stroke="none" 
	d="
M985.439209,1116.018555 
	C986.188171,1115.690674 987.407410,1115.052246 988.628174,1115.049316 
	C1012.125244,1114.993408 1035.622559,1115.009399 1059.119873,1115.029541 
	C1059.770996,1115.030029 1060.421875,1115.241455 1061.385254,1115.584595 
	C1036.435303,1115.877563 1011.172729,1115.940674 985.439209,1116.018555 
z"/>
<path fill="#F4A293" opacity="1.000000" stroke="none" 
	d="
M307.561401,610.958801 
	C306.334381,611.281616 304.639496,611.930603 302.938690,611.946411 
	C292.616974,612.042542 282.293915,611.994263 271.971283,611.994263 
	C270.190002,611.994263 268.408691,611.994263 265.663727,611.994263 
	C265.663727,621.856201 265.663727,631.114624 265.329529,640.612549 
	C264.995361,631.057434 264.995361,621.262695 264.995361,610.992249 
	C279.220825,610.992249 293.155823,610.992249 307.561401,610.958801 
z"/>
<path fill="#F4A293" opacity="1.000000" stroke="none" 
	d="
M264.998749,896.600098 
	C265.329407,899.011719 265.885986,901.874878 265.950287,904.749146 
	C266.094971,911.215454 265.995667,917.687195 265.995667,925.380127 
	C280.095337,925.380127 293.812164,925.380127 307.780548,925.727539 
	C293.884949,926.075012 279.737762,926.075012 265.001221,926.075012 
	C265.001221,916.245056 265.001221,906.650879 264.998749,896.600098 
z"/>
<path fill="#F6A5AC" opacity="1.000000" stroke="none" 
	d="
M985.318604,442.704468 
	C984.856506,442.557739 984.971375,442.238251 984.976624,442.068329 
	C1008.552917,441.987549 1032.124023,442.076691 1055.899292,442.558899 
	C1032.662598,442.918396 1009.221680,442.884766 985.318604,442.704468 
z"/>
<path fill="#F6A5AC" opacity="1.000000" stroke="none" 
	d="
M886.555481,440.981354 
	C887.026306,440.965057 887.061218,441.283295 887.123352,441.428497 
	C879.248291,441.715515 871.311096,441.977814 863.373962,441.972931 
	C848.802795,441.964020 834.231812,441.797638 819.343018,441.429718 
	C841.378418,441.107574 863.731506,441.052612 886.555481,440.981354 
z"/>
<path fill="#F4A293" opacity="1.000000" stroke="none" 
	d="
M79.816147,879.995911 
	C74.390236,879.997925 69.447731,879.997925 64.254211,879.997925 
	C64.254211,874.034241 64.254211,868.314636 64.254211,862.296143 
	C69.885124,862.296143 75.604294,862.296143 81.977448,862.296143 
	C81.977448,867.620850 82.014610,873.177063 81.904953,878.730347 
	C81.896439,879.161926 80.858856,879.573181 79.816147,879.995911 
M65.014847,876.211609 
	C65.884102,877.133362 66.704048,878.789124 67.631035,878.851379 
	C71.883034,879.137024 76.164970,878.976990 80.535782,878.976990 
	C80.535782,873.320007 80.535782,868.307800 80.535782,863.425537 
	C75.159340,863.425537 70.262810,863.425537 64.999748,863.425537 
	C64.999748,867.657837 64.999748,871.463013 65.014847,876.211609 
z"/>
<path fill="#F4A293" opacity="1.000000" stroke="none" 
	d="
M73.977158,674.997925 
	C70.524185,674.997864 67.558372,674.997864 64.297295,674.997864 
	C64.297295,669.123962 64.297295,663.403381 64.297295,657.340698 
	C69.904114,657.340698 75.741333,657.340698 81.791199,657.340698 
	C81.791199,663.063965 81.791199,668.781982 81.791199,674.998047 
	C79.316826,674.998047 76.890572,674.998047 73.977158,674.997925 
M80.926941,672.146423 
	C80.926941,667.564148 80.926941,662.981934 80.926941,658.371582 
	C75.273056,658.371582 70.379021,658.371582 65.333893,658.371582 
	C65.333893,663.646545 65.333893,668.541077 65.333893,674.367310 
	C70.717186,673.905334 75.711807,673.476746 80.926941,672.146423 
z"/>
<path fill="#F6A5AC" opacity="1.000000" stroke="none" 
	d="
M1521.100098,893.445007 
	C1542.903687,893.038330 1564.912231,893.024475 1587.378662,893.014587 
	C1587.207764,893.344238 1586.578979,893.954590 1585.950195,893.954468 
	C1564.401855,893.951355 1542.853394,893.890442 1521.100098,893.445007 
z"/>
<path fill="#F8B9C2" opacity="1.000000" stroke="none" 
	d="
M726.756104,440.501831 
	C705.219299,440.801361 683.477234,440.725342 661.403015,440.412323 
	C682.897522,440.158997 704.724243,440.142609 726.756104,440.501831 
z"/>
<path fill="#F6A5AC" opacity="1.000000" stroke="none" 
	d="
M886.724243,1114.282593 
	C887.185608,1114.426025 887.058960,1114.718384 887.042419,1114.876709 
	C866.119141,1114.968628 845.212341,1114.902222 824.100708,1114.443115 
	C844.684875,1114.080078 865.473877,1114.109619 886.724243,1114.282593 
z"/>
<path fill="#F4A293" opacity="1.000000" stroke="none" 
	d="
M337.877472,584.750000 
	C328.516907,584.999329 319.201050,584.999329 308.619720,584.999329 
	C308.619720,593.728577 308.619720,602.128540 308.272552,610.780396 
	C307.925385,602.218933 307.925385,593.405518 307.925385,584.001099 
	C317.753021,584.001099 327.345764,584.001099 337.393982,584.000305 
	C337.873688,584.166565 337.897919,584.333679 337.877472,584.750000 
z"/>
<path fill="#A8ADD3" opacity="1.000000" stroke="none" 
	d="
M549.043518,356.559937 
	C548.719055,355.329010 548.055176,353.628815 548.047791,351.925751 
	C547.975830,335.307220 548.013611,318.688202 548.034668,301.611115 
	C548.365906,302.635620 548.951843,304.117218 548.957886,305.601196 
	C549.026123,322.430389 549.005615,339.259888 549.043518,356.559937 
z"/>
<path fill="#A8ADD3" opacity="1.000000" stroke="none" 
	d="
M548.448608,1254.686646 
	C548.168091,1236.397095 548.287476,1217.947021 548.742554,1199.233154 
	C549.001587,1217.488159 548.924988,1236.007202 548.448608,1254.686646 
z"/>
<path fill="#F6A5AC" opacity="1.000000" stroke="none" 
	d="
M1588.697754,671.573853 
	C1573.776978,671.888855 1558.718506,671.792847 1543.341797,671.429932 
	C1558.202393,671.163025 1573.381226,671.162964 1588.697754,671.573853 
z"/>
<path fill="#A8ADD3" opacity="1.000000" stroke="none" 
	d="
M380.814850,573.565308 
	C367.040039,573.956543 353.053345,573.967834 338.608215,573.961731 
	C338.792206,573.630737 339.434814,573.043518 340.077087,573.043884 
	C353.585724,573.051147 367.094330,573.124756 380.814850,573.565308 
z"/>
<path fill="#F4A293" opacity="1.000000" stroke="none" 
	d="
M64.928070,807.582520 
	C64.911926,807.123901 65.119431,807.075073 65.198334,807.007446 
	C65.489998,809.033020 65.702759,811.126221 66.034836,813.662476 
	C66.098175,825.377319 66.042198,836.649109 65.983170,848.378784 
	C65.654175,847.370728 65.056587,845.906860 65.045082,844.438477 
	C64.950027,832.306519 64.963554,820.173706 64.928070,807.582520 
z"/>
<path fill="#F8B9C2" opacity="1.000000" stroke="none" 
	d="
M1415.099365,999.441101 
	C1427.568848,999.038513 1440.244019,999.028442 1453.377319,999.023987 
	C1453.209717,999.351379 1452.583984,999.953308 1451.958374,999.953430 
	C1439.740601,999.955505 1427.522949,999.887390 1415.099365,999.441101 
z"/>
<path fill="#F8B9C2" opacity="1.000000" stroke="none" 
	d="
M1298.433716,999.054077 
	C1298.674805,998.751892 1299.387573,998.100830 1300.098145,998.103394 
	C1312.112305,998.145874 1324.125977,998.269653 1336.469971,998.592651 
	C1324.168091,998.876404 1311.536255,998.942871 1298.433716,999.054077 
z"/>
<path fill="#F6A5AC" opacity="1.000000" stroke="none" 
	d="
M293.423981,429.989746 
	C292.183868,430.319672 290.487885,430.937683 288.787018,430.951477 
	C277.885376,431.039948 266.982605,430.995880 255.622360,430.992371 
	C256.624054,430.659637 258.081604,430.054504 259.543457,430.043976 
	C270.683777,429.963470 281.824951,429.999023 293.423981,429.989746 
z"/>
<path fill="#F6A5AC" opacity="1.000000" stroke="none" 
	d="
M255.300003,1125.422974 
	C267.899841,1125.132812 280.635193,1125.255005 293.626953,1125.698486 
	C281.067413,1125.958130 268.251465,1125.896729 255.300003,1125.422974 
z"/>
<path fill="#9C9CC4" opacity="1.000000" stroke="none" 
	d="
M1031.963745,1429.948975 
	C1043.957886,1429.972290 1055.951904,1429.995483 1068.404907,1430.041992 
	C1067.373535,1430.378662 1065.885254,1430.952271 1064.392700,1430.963745 
	C1053.916260,1431.044189 1043.439087,1431.008667 1032.495483,1431.020752 
	C1032.028931,1431.031250 1032.007568,1431.008057 1031.937500,1430.749023 
	C1031.899414,1430.309692 1031.931641,1430.129272 1031.963745,1429.948975 
z"/>
<path fill="#9C9CC4" opacity="1.000000" stroke="none" 
	d="
M1031.964600,267.947784 
	C1043.958740,267.971619 1055.952759,267.995483 1068.405762,268.043182 
	C1067.373657,268.379944 1065.884888,268.952637 1064.391724,268.964020 
	C1053.915771,269.043884 1043.438843,269.007904 1032.495605,269.020264 
	C1032.029053,269.031586 1032.007568,269.008453 1031.936768,268.748901 
	C1031.898804,268.308838 1031.931763,268.128296 1031.964600,267.947784 
z"/>
<path fill="#9C9CC4" opacity="1.000000" stroke="none" 
	d="
M1068.687988,125.543137 
	C1056.877563,125.963036 1044.891357,125.990997 1032.386475,125.764656 
	C1031.923828,125.335999 1031.979980,125.161644 1032.036133,124.987297 
	C1032.036133,124.987297 1032.009155,124.990997 1032.019043,124.979691 
	C1044.190063,125.029327 1056.351196,125.090263 1068.687988,125.543137 
z"/>
<path fill="#9C9CC4" opacity="1.000000" stroke="none" 
	d="
M1068.687988,1287.541870 
	C1056.878296,1287.961548 1044.892090,1287.989746 1032.386108,1287.764404 
	C1031.922974,1287.336304 1031.979614,1287.161743 1032.036255,1286.987305 
	C1032.036255,1286.987305 1032.009155,1286.991089 1032.019043,1286.979858 
	C1044.189819,1287.029175 1056.350586,1287.089844 1068.687988,1287.541870 
z"/>
<path fill="#FFF7AB" opacity="1.000000" stroke="none" 
	d="
M180.628143,622.472717 
	C176.060593,622.845337 171.284836,622.964661 166.517044,622.820435 
	C163.714508,622.735718 162.728683,623.840332 162.823547,626.576355 
	C162.966034,630.685364 162.851349,634.803345 162.840118,639.375244 
	C162.446625,634.073608 162.059021,628.314209 161.641388,622.108704 
	C168.329773,622.108704 174.376526,622.108704 180.628143,622.472717 
z"/>
<path fill="#F6A5AC" opacity="1.000000" stroke="none" 
	d="
M1297.485107,1032.801270 
	C1297.075928,1021.995361 1297.036133,1010.966370 1296.992432,999.468628 
	C1297.180908,999.002991 1297.373047,999.005920 1297.852417,999.035095 
	C1298.044556,1010.233582 1297.949585,1021.405762 1297.485107,1032.801270 
z"/>
<path fill="#9995BA" opacity="1.000000" stroke="none" 
	d="
M984.460266,1504.681519 
	C984.048157,1494.212158 984.020264,1483.554443 984.249268,1472.385498 
	C984.679810,1471.925049 984.853516,1471.975586 985.027222,1472.026123 
	C985.027222,1472.026123 985.008850,1472.009033 985.015564,1472.017334 
	C984.963013,1482.848145 984.903748,1493.670654 984.460266,1504.681519 
z"/>
<path fill="#F8B9C2" opacity="1.000000" stroke="none" 
	d="
M1456.463867,594.823486 
	C1456.063232,585.053650 1456.039062,575.066956 1456.020752,564.622192 
	C1456.349365,564.784485 1456.952393,565.404663 1456.953003,566.025452 
	C1456.961670,575.552551 1456.891968,585.079651 1456.463867,594.823486 
z"/>
<path fill="#A8ADD3" opacity="1.000000" stroke="none" 
	d="
M334.983337,953.498657 
	C334.970551,953.032593 335.253357,952.925842 335.393372,952.872375 
	C335.682861,961.856812 335.832397,970.894714 335.965637,980.390930 
	C335.632385,978.372375 335.091675,975.900024 335.041901,973.417847 
	C334.911957,966.935791 334.996857,960.449402 334.983337,953.498657 
z"/>
<path fill="#F4A293" opacity="1.000000" stroke="none" 
	d="
M307.958344,926.438782 
	C308.281738,928.817505 308.868896,931.660522 308.947083,934.517456 
	C309.105713,940.313965 308.988892,946.118103 308.983582,952.376831 
	C308.654663,950.903381 308.080383,948.976624 308.045959,947.040283 
	C307.926575,940.331787 307.994873,933.619934 307.958344,926.438782 
z"/>
<path fill="#F8B9C2" opacity="1.000000" stroke="none" 
	d="
M1454.080078,893.563171 
	C1454.115112,893.103455 1454.562256,893.093811 1454.784424,893.117676 
	C1454.951294,901.629944 1454.895996,910.118347 1454.465332,918.823303 
	C1454.074951,910.700928 1454.060059,902.361877 1454.080078,893.563171 
z"/>
<path fill="#AD9DCA" opacity="1.000000" stroke="none" 
	d="
M365.318695,1282.453735 
	C373.272156,1282.170044 381.395477,1282.280884 389.775940,1282.733887 
	C381.851593,1283.000244 373.670074,1282.924316 365.318695,1282.453735 
z"/>
<path fill="#AD9DCA" opacity="1.000000" stroke="none" 
	d="
M389.562073,272.958252 
	C386.517731,273.280823 383.009613,273.813019 379.485992,273.951202 
	C375.019012,274.126404 370.539459,273.981506 365.607025,273.957611 
	C368.967743,273.627777 372.781769,273.184021 376.607147,273.037598 
	C380.763062,272.878510 384.929565,272.995972 389.562073,272.958252 
z"/>
<path fill="#3ABDAB" opacity="1.000000" stroke="none" 
	d="
M1304.696289,669.494446 
	C1304.802246,685.996521 1304.802246,702.124390 1304.802246,719.159058 
	C1317.571167,719.159058 1330.256348,719.159058 1343.134521,719.159058 
	C1343.134521,760.629150 1343.134521,801.190796 1343.134521,842.561279 
	C1339.803711,842.561279 1336.882202,842.561340 1333.960693,842.561279 
	C1325.464722,842.561157 1316.965698,842.693115 1308.474243,842.497192 
	C1304.978882,842.416626 1303.409180,843.163574 1303.473389,847.131042 
	C1303.710938,861.786682 1303.605225,876.447876 1303.734253,891.567749 
	C1303.499390,897.651123 1303.158813,903.273865 1302.797607,909.235168 
	C1281.564209,909.235168 1260.504517,909.235168 1238.515625,909.235168 
	C1238.515625,924.986450 1238.515625,940.663696 1238.515625,956.277893 
	C1195.408203,956.277893 1153.237671,956.277893 1110.412842,956.277893 
	C1110.412842,952.610168 1110.412842,949.657043 1110.412964,946.703857 
	C1110.413208,936.545532 1110.413330,926.387268 1110.413574,916.228943 
	C1110.413696,908.592102 1110.413208,908.643982 1103.009888,908.576355 
	C1084.872314,908.410645 1066.735229,908.194824 1048.598145,907.987000 
	C1047.781616,907.977661 1046.966431,907.847656 1045.961182,907.756714 
	C1045.961182,902.065552 1045.961182,896.481506 1045.964111,889.976562 
	C1045.966919,873.134949 1045.966919,857.214172 1045.966919,840.652344 
	C1032.687134,840.652344 1020.091797,840.652344 1007.610229,840.652344 
	C1007.610229,799.307861 1007.610229,758.616516 1007.610229,717.392944 
	C1020.962158,717.392944 1033.713745,717.392944 1046.833740,717.392944 
	C1046.833740,700.577515 1046.833740,684.294617 1046.833740,668.011719 
	C1047.005615,664.489990 1049.698853,665.447876 1051.649414,665.442383 
	C1069.644775,665.391785 1087.640381,665.412781 1105.635864,665.413025 
	C1107.455688,665.413086 1109.275513,665.413025 1112.050171,665.413025 
	C1112.050171,644.562073 1112.050171,624.045715 1112.050171,603.632812 
	C1155.075439,603.632812 1197.140747,603.632812 1239.914795,603.632812 
	C1239.914795,624.785828 1239.914795,645.320923 1239.914795,666.413696 
	C1242.410522,666.413696 1244.199951,666.397278 1245.989014,666.416199 
	C1264.134155,666.607483 1282.280151,666.758911 1300.422852,667.089661 
	C1301.823853,667.115173 1303.201782,668.413513 1304.696289,669.494446 
M1278.026489,707.973572 
	C1278.026489,707.973572 1278.028198,708.078613 1277.477905,707.430847 
	C1269.063232,707.286011 1260.647827,707.016235 1252.234131,707.059631 
	C1249.008789,707.076294 1247.823975,706.009705 1247.948730,702.767456 
	C1248.139404,697.815186 1247.973267,692.849060 1247.993774,686.986145 
	C1247.993774,684.066711 1247.993774,681.147217 1247.993774,678.458496 
	C1227.240479,678.458496 1207.197510,678.458496 1186.796021,678.458496 
	C1186.796021,688.101440 1186.796021,697.361145 1186.796021,707.134277 
	C1176.387817,707.134277 1166.334473,707.134277 1155.841553,707.134277 
	C1155.841553,717.449463 1155.841553,727.243347 1155.315186,737.674744 
	C1155.240356,764.459778 1155.165649,791.244873 1155.014893,818.814880 
	C1155.039307,819.865112 1155.063721,820.915283 1155.616455,822.601868 
	C1165.690308,822.727966 1175.764282,822.854126 1185.972168,823.911377 
	C1186.010742,830.929993 1186.049316,837.948608 1186.618774,845.601013 
	C1187.430176,845.731384 1188.241577,845.974548 1189.053101,845.975586 
	C1207.128174,845.998535 1225.203247,846.014648 1243.278076,845.951904 
	C1244.489868,845.947754 1245.699463,845.310608 1246.986206,844.037537 
	C1246.986206,837.112915 1246.986206,830.188354 1246.986206,823.000000 
	C1255.653076,823.000000 1263.640869,822.716675 1271.596069,823.103210 
	C1276.611084,823.346802 1278.156250,821.822937 1278.116577,816.694275 
	C1277.923462,791.719299 1278.129028,766.741150 1278.639038,741.114319 
	C1278.744507,730.769592 1278.870605,720.424988 1278.910278,710.080017 
	C1278.912964,709.378601 1278.266113,708.674622 1278.026489,707.973572 
z"/>
<path fill="#F14C5A" opacity="1.000000" stroke="none" 
	d="
M1046.375977,668.009033 
	C1046.833740,684.294617 1046.833740,700.577515 1046.833740,717.392944 
	C1033.713745,717.392944 1020.962158,717.392944 1007.610229,717.392944 
	C1007.610229,758.616516 1007.610229,799.307861 1007.610229,840.652344 
	C1020.091797,840.652344 1032.687134,840.652344 1045.966919,840.652344 
	C1045.966919,857.214172 1045.966919,873.134949 1045.900879,889.519531 
	C1022.175354,889.988892 998.515442,890.098816 974.856750,889.978638 
	C922.735535,889.713928 870.615112,889.281433 818.493713,889.092163 
	C814.061707,889.076050 812.831604,887.734375 812.850891,883.383179 
	C813.019897,845.229126 812.857788,807.073547 813.038025,768.919556 
	C813.189819,736.790894 813.747498,704.664185 813.905823,672.535522 
	C813.927368,668.160339 815.169373,666.818542 819.577087,666.847778 
	C848.733459,667.041321 877.892090,666.872498 907.048950,667.025635 
	C953.339172,667.268860 999.628479,667.671326 1046.375977,668.009033 
z"/>
<path fill="#F14C5A" opacity="1.000000" stroke="none" 
	d="
M462.504639,438.906677 
	C464.044434,438.914154 465.122894,438.978577 466.600952,439.104431 
	C467.000763,453.326874 467.067719,467.488312 466.989563,481.648956 
	C466.683533,537.102844 466.347046,592.556580 465.991943,648.010132 
	C465.710449,691.966370 465.385284,735.922363 465.126709,780.323608 
	C465.108978,804.565857 465.118317,828.363342 464.962555,852.159790 
	C464.693634,893.237366 464.370911,934.314636 463.973846,975.391113 
	C463.760193,997.497070 463.215057,1019.600220 463.056915,1041.706299 
	C462.891876,1064.779175 463.012115,1087.854004 463.014618,1111.385986 
	C462.863617,1111.902832 462.705658,1111.961670 462.308838,1112.101929 
	C452.245026,1112.120605 442.419128,1112.121704 432.595398,1111.975830 
	C424.334656,1111.853271 424.335907,1111.777466 424.336670,1103.605957 
	C424.337189,1097.942261 424.310242,1092.278320 424.341858,1086.614746 
	C424.554749,1048.486694 424.774567,1010.358643 425.003906,972.230713 
	C425.099060,956.412292 425.236481,940.593994 425.331696,924.775574 
	C425.562103,886.481445 425.776825,848.187195 426.002167,809.893005 
	C426.104095,792.573853 426.216675,775.254639 426.323547,757.935486 
	C426.549561,721.304688 426.791901,684.674072 426.994873,648.043091 
	C427.136993,622.395081 427.173981,596.746460 427.348511,571.098694 
	C427.637451,528.642395 427.997131,486.186493 428.341675,443.730560 
	C428.352295,442.422760 428.525024,441.116272 428.684998,438.963593 
	C439.895538,438.963593 450.969421,438.963593 462.504639,438.906677 
z"/>
<path fill="#3C3585" opacity="1.000000" stroke="none" 
	d="
M1031.689209,124.740761 
	C1031.979980,125.161644 1031.923828,125.335999 1031.915771,125.780792 
	C1031.968384,173.040039 1031.972778,220.028854 1031.970947,267.482727 
	C1031.931763,268.128296 1031.898804,268.308838 1031.951172,268.750977 
	C1031.692383,270.869110 1031.066040,272.723236 1031.050537,274.582428 
	C1030.957520,285.814819 1031.004272,297.048401 1031.004272,309.336121 
	C1015.523743,309.336121 1000.523438,309.336121 985.275513,309.680481 
	C984.851379,309.980591 984.674927,309.936340 984.230103,309.941254 
	C965.983093,309.990204 948.003357,309.878967 930.026672,310.067078 
	C925.485718,310.114594 923.927246,308.619904 923.934265,304.025208 
	C924.041077,233.942093 923.997192,163.858780 924.023804,93.775513 
	C924.026978,85.382019 924.507446,85.047180 932.705322,84.980202 
	C949.000610,84.847069 965.295288,84.644699 981.590393,84.493896 
	C982.243713,84.487854 982.899170,84.716553 983.957886,84.846161 
	C984.362122,84.856430 984.686462,84.737984 984.851562,84.686943 
	C997.952454,84.756081 1010.888306,84.878944 1023.824158,84.993782 
	C1025.954590,85.012695 1028.085205,84.996445 1031.342163,84.996445 
	C1031.342163,98.438774 1031.342163,111.466499 1031.689209,124.740761 
z"/>
<path fill="#3C3585" opacity="1.000000" stroke="none" 
	d="
M985.274658,1471.681641 
	C984.853516,1471.975586 984.679810,1471.925049 984.237671,1471.914062 
	C967.560486,1471.639160 951.152771,1471.250366 934.742676,1471.036133 
	C924.020935,1470.896118 924.009277,1471.009644 924.008789,1460.259766 
	C924.005676,1391.316406 924.006104,1322.373169 924.009460,1253.429810 
	C924.009827,1246.020996 924.022400,1246.013306 931.572083,1246.011230 
	C948.724609,1246.006470 965.877197,1246.010010 983.495728,1246.009644 
	C984.140625,1246.042114 984.319580,1246.075073 984.763306,1246.041504 
	C986.885864,1246.315674 988.742004,1246.939209 990.602051,1246.951294 
	C1003.823792,1247.036499 1017.046326,1246.996582 1031.343506,1246.996582 
	C1031.343506,1260.472778 1031.343506,1273.482910 1031.689941,1286.740112 
	C1031.979614,1287.161743 1031.922974,1287.336304 1031.915527,1287.781494 
	C1031.968628,1335.041016 1031.972412,1382.029785 1031.969971,1429.483765 
	C1031.931641,1430.129272 1031.899414,1430.309692 1031.951782,1430.751465 
	C1031.692017,1432.868652 1031.065063,1434.722290 1031.049683,1436.580811 
	C1030.956543,1447.813477 1031.003418,1459.047363 1031.003418,1471.337158 
	C1015.523376,1471.337158 1000.522705,1471.337158 985.274658,1471.681641 
z"/>
<path fill="#342975" opacity="1.000000" stroke="none" 
	d="
M1069.031738,1315.396484 
	C1121.667725,1314.939453 1174.290771,1314.956177 1227.363770,1314.929443 
	C1227.813965,1314.885986 1227.924438,1315.051270 1227.972412,1315.558838 
	C1228.044067,1344.992310 1228.067749,1373.918091 1228.091553,1402.843872 
	C1228.091553,1402.843872 1227.924438,1402.949951 1227.868896,1403.033203 
	C1175.199219,1403.086060 1122.585083,1403.055542 1069.506836,1403.052368 
	C1069.034912,1374.009888 1069.026855,1344.939941 1069.031738,1315.396484 
z"/>
<path fill="#342975" opacity="1.000000" stroke="none" 
	d="
M1227.869141,241.031555 
	C1175.200073,241.083862 1122.586182,241.053558 1069.508545,241.050201 
	C1069.035767,212.007446 1069.026611,182.937744 1069.030273,153.394119 
	C1121.666382,152.937057 1174.289917,152.953903 1227.363403,152.927124 
	C1227.813354,152.883484 1227.923584,153.049149 1227.971802,153.557251 
	C1228.044189,182.991028 1228.068359,211.916702 1228.092529,240.842392 
	C1228.092529,240.842392 1227.924438,240.948914 1227.869141,241.031555 
z"/>
<path fill="#F14C5A" opacity="1.000000" stroke="none" 
	d="
M1228.550659,240.896149 
	C1228.068359,211.916702 1228.044189,182.991028 1228.055786,153.610718 
	C1254.080811,153.104706 1280.070190,153.091522 1306.058960,152.951523 
	C1309.158813,152.934830 1310.051636,154.083740 1310.042725,157.050095 
	C1309.963501,183.707916 1309.940552,210.366302 1310.060303,237.023819 
	C1310.076416,240.614288 1308.419067,241.047729 1305.483276,241.038025 
	C1279.992065,240.953629 1254.500366,240.966202 1228.550659,240.896149 
z"/>
<path fill="#F14C5A" opacity="1.000000" stroke="none" 
	d="
M1228.549805,1402.897827 
	C1228.067749,1373.918091 1228.044067,1344.992310 1228.056396,1315.612061 
	C1254.081665,1315.106567 1280.071167,1315.094116 1306.059814,1314.953735 
	C1309.163086,1314.937012 1310.049927,1316.089355 1310.041260,1319.052856 
	C1309.963257,1345.710571 1309.941162,1372.369019 1310.061768,1399.026489 
	C1310.078003,1402.618896 1308.415894,1403.049194 1305.482422,1403.039551 
	C1279.991211,1402.955688 1254.499634,1402.968018 1228.549805,1402.897827 
z"/>
<path fill="#EB4326" opacity="1.000000" stroke="none" 
	d="
M65.007294,875.739929 
	C64.999748,871.463013 64.999748,867.657837 64.999748,863.425537 
	C70.262810,863.425537 75.159340,863.425537 80.535782,863.425537 
	C80.535782,868.307800 80.535782,873.320007 80.535782,878.976990 
	C76.164970,878.976990 71.883034,879.137024 67.631035,878.851379 
	C66.704048,878.789124 65.884102,877.133362 65.007294,875.739929 
z"/>
<path fill="#EB4326" opacity="1.000000" stroke="none" 
	d="
M80.816681,672.597290 
	C75.711807,673.476746 70.717186,673.905334 65.333893,674.367310 
	C65.333893,668.541077 65.333893,663.646545 65.333893,658.371582 
	C70.379021,658.371582 75.273056,658.371582 80.926941,658.371582 
	C80.926941,662.981934 80.926941,667.564148 80.816681,672.597290 
z"/>
<path fill="#000000" opacity="1.000000" stroke="none" 
	d="
M1155.841553,737.037170 
	C1155.841553,727.243347 1155.841553,717.449463 1155.841553,707.134277 
	C1166.334473,707.134277 1176.387817,707.134277 1186.796021,707.134277 
	C1186.796021,697.361145 1186.796021,688.101440 1186.796021,678.458496 
	C1207.197510,678.458496 1227.240479,678.458496 1247.993774,678.458496 
	C1247.993774,681.147217 1247.993774,684.066711 1247.580322,687.638733 
	C1247.166870,694.840881 1247.166870,701.390381 1247.166870,708.078613 
	C1257.795288,708.078613 1267.911743,708.078613 1278.028198,708.078613 
	C1278.028198,708.078613 1278.026489,707.973572 1278.008057,708.443604 
	C1278.057617,719.863831 1278.125610,730.814026 1278.193604,741.764160 
	C1278.129028,766.741150 1277.923462,791.719299 1278.116577,816.694275 
	C1278.156250,821.822937 1276.611084,823.346802 1271.596069,823.103210 
	C1263.640869,822.716675 1255.653076,823.000000 1246.986206,823.000000 
	C1246.986206,830.188354 1246.986206,837.112915 1246.488770,844.516296 
	C1226.023438,844.985779 1206.055786,844.976501 1186.088013,844.967163 
	C1186.049316,837.948608 1186.010742,830.929993 1185.766113,823.034668 
	C1175.402710,822.093811 1165.245361,822.029663 1155.088013,821.965515 
	C1155.063721,820.915283 1155.039307,819.865112 1155.426270,818.204224 
	C1155.838867,790.741394 1155.840210,763.889282 1155.841553,737.037170 
z"/>
<path fill="#9CDED4" opacity="1.000000" stroke="none" 
	d="
M1155.578369,737.355957 
	C1155.840210,763.889282 1155.838867,790.741394 1155.464233,817.811707 
	C1155.165649,791.244873 1155.240356,764.459778 1155.578369,737.355957 
z"/>
<path fill="#9CDED4" opacity="1.000000" stroke="none" 
	d="
M1186.353394,845.284058 
	C1206.055786,844.976501 1226.023438,844.985779 1246.450684,844.981445 
	C1245.699463,845.310608 1244.489868,845.947754 1243.278076,845.951904 
	C1225.203247,846.014648 1207.128174,845.998535 1189.053101,845.975586 
	C1188.241577,845.974548 1187.430176,845.731384 1186.353394,845.284058 
z"/>
<path fill="#9CDED4" opacity="1.000000" stroke="none" 
	d="
M1277.753052,707.754761 
	C1267.911743,708.078613 1257.795288,708.078613 1247.166870,708.078613 
	C1247.166870,701.390381 1247.166870,694.840881 1247.562744,688.090088 
	C1247.973267,692.849060 1248.139404,697.815186 1247.948730,702.767456 
	C1247.823975,706.009705 1249.008789,707.076294 1252.234131,707.059631 
	C1260.647827,707.016235 1269.063232,707.286011 1277.753052,707.754761 
z"/>
<path fill="#9CDED4" opacity="1.000000" stroke="none" 
	d="
M1278.416260,741.439209 
	C1278.125610,730.814026 1278.057617,719.863831 1277.955566,708.442749 
	C1278.266113,708.674622 1278.912964,709.378601 1278.910278,710.080017 
	C1278.870605,720.424988 1278.744507,730.769592 1278.416260,741.439209 
z"/>
<path fill="#9CDED4" opacity="1.000000" stroke="none" 
	d="
M1155.352295,822.283691 
	C1165.245361,822.029663 1175.402710,822.093811 1185.699097,822.569092 
	C1175.764282,822.854126 1165.690308,822.727966 1155.352295,822.283691 
z"/>
</svg>